<?xml version="1.0" encoding="utf-8"?>
<!-- Generator: Adobe Illustrator 21.0.0, SVG Export Plug-In . SVG Version: 6.00 Build 0)  -->
<svg version="1.1" id="Слой_1" xmlns="http://www.w3.org/2000/svg" xmlns:xlink="http://www.w3.org/1999/xlink" x="0px" y="0px"
	 viewBox="0 0 3479.3 1031.8" style="enable-background:new 0 0 3479.3 1031.8;" xml:space="preserve">
<style type="text/css">
	.st0{fill:#C10A1C;}
	.st1{fill:#F92B35;}
	.st2{fill:#FCD3BE;}
	.st3{fill:#5E3119;}
	.st4{fill:#F2AF91;}
	.st5{fill:none;stroke:#3F172E;stroke-width:0.9914;stroke-linecap:round;stroke-linejoin:round;stroke-miterlimit:10;}
	.st6{fill:#C48014;}
	.st7{fill:#FAB22C;}
	.st8{fill:none;}
	.st9{fill:none;stroke:#FAB22C;stroke-miterlimit:10;}
	.st10{opacity:0.67;}
	.st11{fill:#B2B2B2;}
	.st12{fill:#FFFFFF;}
	.st13{clip-path:url(#SVGID_2_);}
	.st14{fill:#666666;}
	.st15{fill:#F92B35;stroke:#FFFFFF;stroke-miterlimit:10;}
</style>
<g>
	<path class="st0" d="M-4199.9-2369.7c0.1,9.4,0.2,18.7,0.2,28.1c-15.5,9.3-47.8,25.3-86.3,20.8c-12.7-1.5-28.8-3.7-41.2-16.8
		c-7.4-7.8-12-18.4-13.7-31.6l166.7-42.6c-1.8-11.4-5.3-26.9-13-44c-17.8-39.6-48.3-66.7-50.6-65c-0.8,0.6,3.3,4.8,2.1,7.9
		c-2.7,6.6-28.9,5-102.1-14.4c-39.9,12.2-67,31.4-81.5,57.6c-23.3,42.1,4.2,103.9-3.7,106c-3.4,0.9-8.4-10.1-8.9-9.8
		c-1.3,0.7,15.7,59.8,65.6,91.7c3.2,2,18.7,12.5,41.9,17.9c28,6.5,56.4,6.2,85-1.1c0.3-4.5,0.6-9.1,0.9-13.6
		c2.9,3.6,5.8,7.3,8.7,10.9c17-5.2,34-12.8,51.2-22.8c-2-20-4.1-40-6.1-60C-4189.8-2356.9-4194.8-2363.3-4199.9-2369.7z
		 M-4340.2-2453.5c2.5-4.1,8.2-13.2,19.6-17.5c13-4.9,25-0.2,30,1.7c22.6,8.8,31.3,31.3,33,36l-87.9,24.5
		C-4346.9-2413.9-4351.9-2434.7-4340.2-2453.5z"/>
	<path class="st1" d="M-4199.8-2369.8c-26.8,17.2-53.1,27-78.7,29.4c-0.6,3.1-1.3,6.2-1.9,9.3c-1.9-2.9-3.7-5.9-5.6-8.8
		c-5,0.2-10,0.1-15-0.3c-32.7-2.5-51-18.6-54.9-48.4l166.7-42.6c-6.1-24.3-10.5-39-13-44c-28.2-59.8-78.4-83.6-150.6-71.6
		c-8,2.5-15.5,5.2-22.5,8.2c0.8,6.2,1.5,12.3,2.3,18.5c-4.9-4.2-9.8-8.3-14.7-12.5c-54.5,28.9-71.2,78.7-50.2,149.4
		c17.9,55.4,50.8,88.7,98.5,99.9c32.4,7.6,63.5,3.9,89.2-3.1c0.3-3.7,0.5-7.5,0.8-11.2c2.4,3,4.8,5.9,7.1,8.9
		c22-6.9,39.3-15.8,48.7-21.2c-1.4-13.3-2.7-26.5-4.1-39.8C-4198.4-2356.4-4199.1-2363.1-4199.8-2369.8z M-4355.3-2472.9
		c2.6-4.3,7.5-12.6,17.6-17c13.6-6,26.9-0.8,32,1.2c22.7,8.8,31.3,31.3,33,36l-87.9,24.5
		C-4362.1-2434.2-4366.3-2454.3-4355.3-2472.9z"/>
	<g>
		<g>
			<path class="st2" d="M-4032.4-2097.3c0,0-45.2-143.9-87.6-124.7c-42.4,19.2-63.8,72-46.7,86.7c17.1,14.7,52.5,30.3,56.9,32.4
				c16,7.9,29.3,45.6,29.3,45.6L-4032.4-2097.3z"/>
			<path class="st3" d="M-4081.5-2053.8l-1-2.8c-0.1-0.4-13.3-37-28.3-44.4c-0.5-0.2-1.4-0.7-2.7-1.3c-9.7-4.5-39.3-18.3-54.6-31.5
				c-5.5-4.7-7.6-13.1-6.1-23.5c3.2-22,23-52.9,53.4-66.6c5.9-2.7,12.2-2.6,18.7,0.3c37.1,16.6,70.3,121.2,71.7,125.6l0.4,1.3
				L-4081.5-2053.8z M-4114.4-2221.5c-1.6,0.2-3.2,0.7-4.7,1.4c-29.1,13.2-48,42.5-51,63.5c-1.3,9,0.4,16.1,4.7,19.8
				c14.9,12.8,44.1,26.4,53.7,30.8c1.3,0.6,2.3,1,2.8,1.3c14.1,7,25.9,35,29.3,44l44.8-37.3c-4-12.3-35.8-106.9-69-121.8
				C-4107.5-2221.5-4111-2222-4114.4-2221.5z"/>
		</g>
		<g>
			<path class="st2" d="M-4184.8-2202.8c0,0-6.9-8.5,5.1-21.2s25.2-4.7,42.7,9.2c17.5,14,21.6,27.9,15.7,34.4s-11.8,11.4-18.4,8"/>
			<path class="st2" d="M-4201.6-2169.4c0,0-14.4-16.1-4.1-26.8c10.2-10.7,15.8-11.7,41.8,5.3"/>
			<path class="st4" d="M-4205.3-2195.7c0,0,3.8,5.2,8.4,8.9s8.3,5.9,8.3,5.9s-4.7,1.4-8.3,6.3c-3.7,4.9-3.8,6.6-3.8,6.6
				s-8.4-11.1-7.9-16.5C-4208.2-2190-4205.3-2195.7-4205.3-2195.7z"/>
			<path class="st4" d="M-4180.1-2222.5c0,0-0.3,5.2,8.8,13c9.1,7.7,28.4,19.4,28.4,19.4s-6.8-2.1-13.1-0.9c-6.4,1.2-6.7,2-6.7,2
				l-23.5-15.4C-4186.2-2204.4-4190.6-2213.9-4180.1-2222.5z"/>
			<path class="st3" d="M-4162.8-2189.8c-0.5,0.5-1.4,0.7-2,0.2c-27.1-17.8-32.4-15.7-39.7-5.7c-7.7,10.5,4,24.7,4.1,24.8
				c0.6,0.7,0.5,1.7-0.2,2.3s-1.7,0.5-2.3-0.2c-0.6-0.7-13.4-16.2-4.2-28.8c9.5-13,18.2-12,44,5c0.7,0.5,0.9,1.5,0.5,2.2
				C-4162.6-2189.9-4162.7-2189.8-4162.8-2189.8z"/>
			<path class="st5" d="M-4164.5-2139.2c0,0,0.9-5.1-1.7-10.5c-2.5-5.4-9.5-10-9.5-10"/>
			<path class="st2" d="M-4169.4-2154.7c0,0,8.4,1.2,21-7.6s15.3-29.1-1.4-29.4c-16.7-0.3-35.5,9.4-43.6,14.2
				c-7.8,4.6-13.2,14.8-12.2,31.7c1,16.8,4.6,36.4,41.1,42.4c33.7,5.5,61.5-10.9,83.1-30.2c23-20.5,35.9-44.9,28-66.4
				c-7.2-19.6-22.4-33-22.4-33"/>
			<path class="st2" d="M-4121.2-2244.4c0,0-0.7-7.3,7.8-13.1s25.7,5,33.4,15.8c7.7,10.7,3.7,21.2-1.7,24.9
				c-8,5.6-16.3-0.3-16.3-0.3"/>
			<path class="st4" d="M-4138.5-2186.3c0,0,6.1,4.2,10.9,2.8c5-1.4,9.2-7.6,9.2-7.6s-0.9,11.3-7.6,15.9c-6.7,4.6-14,2.7-14,2.7
				S-4136.3-2181.2-4138.5-2186.3z"/>
			<path class="st2" d="M-4154.5-2226.9c0,0-3.5-8.2,6.5-18.1c10-9.9,23.9-4.1,39.5,10.6c15.6,14.7,12.6,29.6,6,36.1
				c-7.9,7.8-17.3,2.9-17.3,2.9"/>
			<path class="st4" d="M-4151.2-2240.2c0,0,6.3,9.5,17.9,19.9c11.6,10.5,20.1,17.7,26.1,14.6c5.9-3.1,10-9.5,10-9.5
				s-0.1,15.4-7.4,19c-7.2,3.7-15.1,1.6-15.1,1.6s-11.5-17.8-20.4-23.5s-14.6-9.7-14.6-9.7S-4154.3-2237.7-4151.2-2240.2z"/>
			<path class="st4" d="M-4120.6-2167.8c0,0,4.6-2.5,6.6-7.6s2.7-9.2,2.7-9.2s6.8,4,14.2-1.7c7.4-5.7,8.7-16.6,8.7-16.6
				s5.6,1.4,11-2.6s9.3-18.7,9.3-18.7l-7.4-7.9c0,0-0.3,13.3-5.8,15.1c-5.4,1.8-15.7,0.6-15.7,0.6s1.8,13-5.6,18.3
				c-7.4,5.3-16.9,4.1-16.9,4.1s2,10.5-2.9,15.6c-5,5.1-17.3,6.1-17.3,6.1l-6.4,9.7c0,0,21.1-6.1,25-4.9"/>
			<path class="st3" d="M-4122.9-2175.9c-4.7,4.9-11.2,8.3-17.6,5c-0.8-0.4-1.1-1.4-0.7-2.2s1.4-1.1,2.2-0.7
				c5.9,3.1,12.5-2.1,16.4-7.5c7.5-10.5-4.3-23.3-15.4-32.2c-18.7-14.9-30.1-20.5-40.5-9.4c-10.9,11.6-5.1,19.1-5,19.1
				c0.6,0.7,0.4,1.7-0.2,2.3c-0.7,0.6-1.7,0.5-2.3-0.2c-0.3-0.4-7.6-9.8,5.2-23.4c13.3-14.1,28.2-4.2,44.8,9.1
				c22.2,17.7,21,29.7,16,36.6C-4120.9-2178.2-4121.9-2177-4122.9-2175.9z"/>
			<path class="st3" d="M-4120.6-2167.1c-0.3,0.3-0.7,0.5-1.2,0.5c-25.8-0.7-42.3,19.2-42.4,19.4c-0.5,0.7-1.6,0.8-2.3,0.2
				s-0.8-1.6-0.2-2.3c0.7-0.9,17.5-21.3,45-20.6c0.9,0,1.6,0.8,1.6,1.6C-4120.1-2167.7-4120.3-2167.3-4120.6-2167.1z"/>
			<path class="st4" d="M-4081.4-2133.6c11.3-10.1,20.2-21.1,25.4-32.3c-53.8,53.9-84.6,50.3-108.8,44.4
				c-21.5-5.2-35.5-29.8-38.4-43.5c-1.9,5-2.8,11.4-2.3,19.2c1,16.8,4.6,36.4,41.1,42.4C-4130.8-2097.9-4103-2114.3-4081.4-2133.6z"
				/>
			<path class="st4" d="M-4185.8-2159.5c0,0,20.4,7.7,30.9,2.3c13.8-7,16.5-24.2,16.5-24.2s-14.6,10.2-23.4,14.2
				C-4170.5-2163.1-4185.8-2159.5-4185.8-2159.5z"/>
			<path class="st3" d="M-4073-2139.5c-2.3,2.4-4.8,4.8-7.4,7.1c-28.3,25.3-55.9,35.3-84.4,30.6c-37.1-6.1-41.4-25.9-42.5-43.9
				c-1-15.8,3.7-27.6,13-33.1c5.8-3.5,26.3-14.7,44.5-14.4c8.8,0.2,11.7,5.3,12.6,8.4c2.4,7.7-2.2,18.2-10.3,23.9
				c-13,9.1-21.8,8-22.2,7.9c-0.9-0.1-1.5-0.9-1.4-1.8c0.1-0.9,0.9-1.5,1.8-1.4c0.1,0,8.1,0.9,19.9-7.4c7-4.9,11.1-14,9.1-20.3
				c-1.2-3.9-4.5-6-9.6-6.1c-17.3-0.3-37.1,10.6-42.8,14c-8.3,4.9-12.3,15.6-11.4,30.2c1.1,17.6,5,35.2,39.8,40.9
				c27.4,4.5,54.2-5.2,81.7-29.8c24.6-21.9,34.6-45.5,27.5-64.6c-7-18.9-21.9-32.2-22-32.3c-0.7-0.6-0.7-1.6-0.1-2.3
				c0.6-0.7,1.6-0.7,2.3-0.1c0.6,0.6,15.6,13.9,22.9,33.6C-4045.2-2182.2-4052.8-2160.3-4073-2139.5z"/>
			<path class="st4" d="M-4119.1-2249c0,0,15.3,17.7,23.4,19.7s16.6-4.6,15.7-12.4c-0.9-7.9,10.6,18-1.3,24.6
				c-11.9,6.6-16.1,0.3-16.1,0.3s-5.5-13.4-12.9-19.8c-7.4-6.4-11-8.1-11-8.1L-4119.1-2249z"/>
			<path class="st3" d="M-4101.2-2197.4c-0.1,0.1-0.2,0.2-0.3,0.3c-8.6,8.5-19,3.3-19.1,3.2c-0.8-0.4-1.1-1.4-0.7-2.2
				s1.4-1.1,2.2-0.7c0.3,0.2,8.5,4.2,15.4-2.6c3.2-3.1,5-7.8,4.9-12.8s-2-12.7-10.8-21c-16.3-15.4-28.9-19-37.3-10.6
				c-9.1,9.1-6.1,16.2-6.1,16.3c0.3,0.8,0,1.8-0.8,2.1s-1.8,0-2.1-0.8c-0.2-0.4-3.8-9.3,6.8-19.9c9.9-9.8,23.9-6.3,41.7,10.6
				c9.7,9.2,11.8,17.7,11.9,23.3C-4095.5-2206.5-4097.5-2201.1-4101.2-2197.4z"/>
			<path class="st3" d="M-4078.8-2217.1c-0.6,0.6-1.2,1.1-1.9,1.6c-7,4.9-14.7,2.1-17.8-0.1c-0.7-0.5-0.9-1.5-0.4-2.2
				s1.5-0.9,2.2-0.4c0.3,0.2,7.2,4.9,14.1,0c2.5-1.8,4.4-5,5-8.6c0.6-3.3,0.4-8.4-3.7-14.1c-7.7-10.8-24-20.2-31.2-15.4
				c-7.6,5.1-7.2,11.3-7.1,11.6c0.1,0.9-0.6,1.7-1.5,1.7c-0.9,0.1-1.7-0.6-1.7-1.4c0-0.3-0.7-8.3,8.5-14.5
				c9.8-6.6,27.9,5.4,35.6,16.2c4.7,6.7,4.9,12.7,4.3,16.5C-4075-2222.6-4076.6-2219.4-4078.8-2217.1z"/>
		</g>
	</g>
	<g>
		<g>
			<path class="st2" d="M-5809.8-2624.7c0,0,15.2,153.3,61.6,143s78.9-58.7,64.9-77s-46.2-41.2-50.1-44.3
				c-14.3-11.2-19.8-51.7-19.8-51.7L-5809.8-2624.7z"/>
			<path class="st3" d="M-5752.6-2479.1c-4.8,0-9.4-1.6-13.8-4.8c-33.6-24.3-45-135.9-45.5-140.6l-0.1-1.4l60.4-32.1l0.4,3
				c0.1,0.4,5.6,39.8,19,50.3c0.5,0.4,1.3,1,2.4,1.8c8.8,6.5,35.5,26.5,48,42.9c4.5,5.9,4.9,14.7,1.2,24.8
				c-7.8,21.4-34,48.1-67.3,55.5C-5749.4-2479.3-5751-2479.1-5752.6-2479.1z M-5807.6-2623.5c1.4,13.1,13.5,114.4,43.6,136.2
				c4.9,3.6,9.9,4.7,15.3,3.5c31.8-7.1,56.8-32.5,64.2-52.8c3.2-8.8,3-16.1-0.6-20.8c-12.2-15.9-38.6-35.6-47.2-42
				c-1.2-0.9-2-1.5-2.5-1.9c-12.7-9.9-18.6-40.4-20.2-50.1L-5807.6-2623.5z"/>
		</g>
		<g>
			<path class="st2" d="M-5679.4-2487.4c0,0,5.1,9.9-9.5,20.2c-14.6,10.2-26.2-0.5-40.8-18.2c-14.6-17.6-15.8-32.5-8.6-37.7
				c7.2-5.2,14.2-9,20.1-4.1"/>
			<path class="st2" d="M-5655.6-2517.3c0,0,11,19.1-1.5,27.7c-12.5,8.6-18.3,8.4-40.7-14.1"/>
			<path class="st4" d="M-5657.4-2490.2c0,0-2.7-6-6.5-10.6s-7.1-7.6-7.1-7.6s5-0.4,9.6-4.6c4.7-4.2,5.2-5.8,5.2-5.8
				s6.1,12.9,4.5,18.2C-5653.3-2495.3-5657.4-2490.2-5657.4-2490.2z"/>
			<path class="st4" d="M-5688.2-2468.7c0,0,1.4-5.2-6.1-14.8s-24.4-25.3-24.4-25.3s6.3,3.6,12.9,3.7c6.6,0.1,7.1-0.6,7.1-0.6
				l20.3,20.3C-5678.4-2485.5-5675.9-2475.1-5688.2-2468.7z"/>
			<path class="st3" d="M-5698.7-2505.1c0.6-0.4,1.5-0.4,2.1,0.2c23.4,23.4,29.1,22.5,38.5,14c9.9-8.9,1.2-25.5,1.1-25.7
				c-0.4-0.8-0.1-1.8,0.7-2.2c0.8-0.4,1.8-0.1,2.2,0.7c0.4,0.8,10,19-1.8,29.7c-12.2,11-20.7,8.2-43-14.1c-0.6-0.6-0.6-1.7,0-2.3
				C-5698.9-2504.9-5698.8-2505-5698.7-2505.1z"/>
			<path class="st5" d="M-5686.4-2555.3c0,0-1.9,4.9-0.5,10.8c1.4,5.9,7.4,12,7.4,12"/>
			<path class="st2" d="M-5684.7-2538.8c0,0-8.2-2.9-22.6,3.3s-21.3,25.9-4.7,29.7c16.6,3.8,37.5-2,46.6-5.1
				c8.8-3,16.3-12.1,18.8-29.1c2.5-17.1,3-37.4-32.3-51c-32.6-12.6-63.8-1.9-89.4,12.9c-27.3,15.7-45.3,37.4-41.8,60.6
				c3.2,21.1,15.6,37.7,15.6,37.7"/>
			<path class="st2" d="M-5751.7-2459c0,0-0.8,7.4-10.6,11.4c-9.7,4-24.7-10.4-30.1-22.7s0.8-22,6.9-24.6c9.1-3.9,16.2,3.7,16.2,3.7
				"/>
			<path class="st4" d="M-5722.3-2513.6c0,0-5.2-5.4-10.3-5.1c-5.3,0.3-10.8,5.7-10.8,5.7s3.3-11.1,10.9-14.3s14.6,0.3,14.6,0.3
				S-5723.4-2519.1-5722.3-2513.6z"/>
			<path class="st2" d="M-5714.7-2469.7c0,0,1.8,8.9-10.2,16.7s-24.8-0.9-37.3-18.9s-6.4-32.2,1.6-37.4c9.5-6.1,17.9,0.7,17.9,0.7"
				/>
			<path class="st4" d="M-5720.9-2457c0,0-4.4-10.8-13.8-23.7s-16.5-21.9-23.1-20s-12,7.5-12,7.5s3.3-15.3,11.4-17.5
				c8-2.2,15.5,1.6,15.5,1.6s7.8,20.2,15.5,27.7s12.6,12.7,12.6,12.7S-5717.2-2458.8-5720.9-2457z"/>
			<path class="st4" d="M-5736.3-2535.8c0,0-5.2,1.5-8.2,6.2s-4.6,8.7-4.6,8.7s-6-5.4-14.6-1.2s-12.2,14.8-12.2,14.8
				s-5.4-2.6-11.6,0.3c-6.2,2.9-13.2,16.8-13.2,16.8l5.8,9.5c0,0,3.1-13.2,8.9-13.9c5.8-0.6,15.9,2.7,15.9,2.7s0.9-13.4,9.4-17.2
				s17.8-0.6,17.8-0.6s0.1-10.9,6.2-15s18.6-2.5,18.6-2.5l8.4-8.3c0,0-22.4,1.7-26.1-0.3"/>
			<path class="st3" d="M-5735.7-2527.2c5.7-3.9,13-5.9,18.6-1.3c0.7,0.6,0.8,1.6,0.2,2.3c-0.6,0.7-1.6,0.8-2.3,0.2
				c-5.3-4.3-13-0.5-17.9,4.1c-9.7,8.9-0.6,24.2,8.7,35.4c15.6,18.8,25.9,26.8,38.6,17.9c13.3-9.3,9.1-18,9-18.1
				c-0.4-0.8-0.1-1.8,0.7-2.2c0.8-0.4,1.8-0.1,2.2,0.7c0.2,0.5,5.6,11.3-10,22.3c-16.2,11.3-29.1-1.6-43-18.5
				c-18.5-22.4-14.8-34.1-8.4-39.9C-5738.2-2525.3-5737-2526.3-5735.7-2527.2z"/>
			<path class="st3" d="M-5736.2-2536.6c0.4-0.2,0.8-0.3,1.3-0.2c25.7,6.1,46.3-10.4,46.5-10.6c0.7-0.6,1.7-0.5,2.3,0.2
				c0.6,0.7,0.5,1.7-0.2,2.3c-0.9,0.7-22,17.6-49.3,11.2c-0.9-0.2-1.4-1.1-1.2-2C-5736.8-2536-5736.5-2536.3-5736.2-2536.6z"/>
			<path class="st4" d="M-5768.4-2578.2c-13.4,7.7-24.6,16.9-32.1,27c65-42.7,95.2-32.6,118.1-21.7c20.4,9.7,29.2,37.2,29.4,51.6
				c2.9-4.7,5.2-10.8,6.3-18.7c2.5-17.1,3-37.4-32.3-51C-5711.5-2603.6-5742.7-2593-5768.4-2578.2z"/>
			<path class="st4" d="M-5669.3-2530.5c0,0-18.8-11.9-30.5-8.8c-15.2,4.1-21.5,20.8-21.5,20.8s16.8-7.1,26.4-9.4
				C-5685.4-2530.1-5669.3-2530.5-5669.3-2530.5z"/>
			<path class="st3" d="M-5778.1-2574.1c2.8-1.9,5.8-3.8,8.9-5.6c33.6-19.3,63.3-23.6,90.8-13c35.9,13.9,36,34.5,33.3,52.8
				c-2.3,16-9.4,26.8-19.9,30.4c-6.6,2.2-29.4,9.2-47.5,5.1c-8.8-2-10.6-7.8-10.9-11c-0.7-8.2,6-17.8,15.3-21.8
				c14.9-6.4,23.5-3.4,23.8-3.3c0.9,0.3,1.3,1.2,1,2.1c-0.3,0.8-1.2,1.3-2.1,1c-0.1,0-7.9-2.6-21.5,3.2c-8,3.4-14,11.7-13.4,18.5
				c0.4,4.2,3.3,7,8.4,8.1c17.3,3.9,39.3-2.9,45.7-5c9.3-3.2,15.6-13.1,17.8-27.8c2.6-17.8,2.3-36.3-31.3-49.3
				c-26.5-10.2-55.3-6.1-88,12.7c-29.2,16.8-44.1,38.3-41,58.9c3.1,20.4,15.1,36.8,15.3,36.9c0.5,0.7,0.4,1.8-0.3,2.3
				c-0.7,0.5-1.8,0.4-2.3-0.3s-12.7-17.2-15.9-38.4C-5814.8-2537.2-5802.6-2557.4-5778.1-2574.1z"/>
			<path class="st4" d="M-5754.8-2455c0,0-11.6-20.9-19.3-24.6c-7.7-3.6-17.6,1.1-18.3,9.2c-0.8,8-6.8-20.2,6.4-24.3
				c13.3-4.1,16.2,3.1,16.2,3.1s2.7,14.5,8.7,22.5c6.1,8,9.3,10.4,9.3,10.4L-5754.8-2455z"/>
			<path class="st3" d="M-5761.9-2510.3c0.1-0.1,0.2-0.2,0.4-0.2c10.4-6.7,19.7,0.7,19.8,0.8c0.7,0.6,0.8,1.6,0.2,2.3
				c-0.6,0.7-1.6,0.8-2.3,0.2c-0.3-0.2-7.6-6-16-0.6c-3.8,2.5-6.6,6.7-7.6,11.7s-0.7,13.1,6.5,23.3c13.1,18.8,24.9,25,35.1,18.4
				c11-7.2,9.5-15,9.5-15c-0.2-0.9,0.4-1.7,1.3-1.9s1.8,0.4,1.9,1.3c0.1,0.4,1.9,10.1-10.9,18.4c-11.9,7.8-25.2,1.3-39.5-19.3
				c-7.8-11.2-8.1-20.2-7-25.8C-5769.5-2502.4-5766.3-2507.3-5761.9-2510.3z"/>
			<path class="st3" d="M-5788.4-2495.2c0.7-0.5,1.5-0.9,2.2-1.2c8.1-3.4,15.2,1,17.8,3.8c0.6,0.7,0.6,1.7-0.1,2.3s-1.7,0.6-2.3-0.1
				c-0.2-0.3-6.2-6.4-14.1-3c-2.9,1.2-5.4,4-6.8,7.5c-1.2,3.1-2.1,8.3,0.8,14.9c5.5,12.5,19.8,25.3,28,21.9
				c8.6-3.5,9.5-9.8,9.6-10.1c0.1-0.9,0.9-1.5,1.8-1.4s1.5,0.9,1.4,1.8c0,0.3-1.1,8.4-11.6,12.8c-11.1,4.6-26.8-11.2-32.2-23.6
				c-3.4-7.6-2.3-13.7-0.8-17.4C-5793.4-2490.5-5791.1-2493.4-5788.4-2495.2z"/>
		</g>
	</g>
	<path class="st0" d="M-4638.9-2424.7l13.3,210.3l-59.6,13.6c-5.1-6.4-10.1-12.9-15.2-19.3c3.8-2.5,7.6-5.1,11.4-7.6
		c-8.7-62.1-17.5-124.3-26.2-186.4c-16.9,2.4-33.9,4.8-50.8,7.2c-5-6.5-10-12.9-15-19.4c3.7-1.5,7.5-3,11.2-4.5
		c-1.1-7-2.2-14.1-3.4-21.1c17.4-1.6,34.8-3.2,52.1-4.8l-25.6-182.7c23.3-4.6,46.6-9.2,70-13.8c2.7-8,5.4-16,8.1-24
		c5,6.5,10,12.9,15,19.4c4.1,64.6,8.2,129.3,12.3,193.9c6.7-0.6,13.3-1.1,20-1.7c0.2-6.9,0.5-13.8,0.7-20.7c5,6.5,10,12.9,15,19.4
		c0.7,12.5,1.4,25,2,37.5L-4638.9-2424.7z"/>
	<path class="st1" d="M-4653.9-2444.1l13.3,210.3l-59.6,13.6l-30-213.3l-50.8,7.2l-7.2-45l52.1-4.8l-25.6-182.7l93-18.4l12.3,193.9
		l35.8-3.1l2,37.5L-4653.9-2444.1z"/>
	<path class="st6" d="M-4563.6-1918.5c-6,1.3-11.9,2.6-17.9,3.8v-25.5c1.4-0.8,2.9-1.5,4.3-2.3
		C-4572.6-1934.5-4568.1-1926.5-4563.6-1918.5z"/>
	<path class="st0" d="M-5523.4-2650.6c-15.8-28.3-48.4-75.7-107.1-104.3c-24.8-12.1-62.8-30.6-87.8-14.9c-28,17.5-34,74-8.5,137.9
		c-25.3,5.1-52.5,13.5-80.2,26.7c-3.6,1.7-7.2,3.5-10.7,5.3c-33.5-95.7-22.2-188,30.5-230.7c23.3-18.9,49-23.6,54.8-24.5
		c76-12.4,141.9,57.6,176.9,94.7c18.1,19.2,42,48.5,63.5,89.4C-5502.5-2664.1-5513-2657.3-5523.4-2650.6z"/>
	<path class="st6" d="M-4270.4-1983.5c65,137.6,326.8,138.8,174.1-68.5c15.8-8.7,80.6-62.2,80.6-62.2s135.1,218.7-10.5,279.8
		c-107,44.9-245.5-68.6-269.6-123L-4270.4-1983.5z"/>
	<path class="st6" d="M-5602-2401.5c0.8,4.7-4.7,43.9-16.6,117.6c-81.4,17.2-123.1,26.6-125.3,28.4c-2.1,1.8-5.3,31.1-9.4,87.9
		c32.2-11.8,64.4-23.5,96.6-35.3c1.4-11.3,2.8-22.5,4.2-33.8c5.1,8.9,10.1,17.8,15.2,26.7c3.1,38.7,6.2,77.5,9.2,116.2l1.3,11.5
		l-136.7,35.1l-6.9,123.6c50-14.7,99.9-29.5,149.9-44.2c2.6-11.1,5.1-22.3,7.7-33.4c5.1,8.9,10.1,17.8,15.2,26.6
		c-1.2,10.8-2.3,21.8-3.9,32.9c-2.8,19.5-7,47.7-12.8,84.3c-29.7,5.3-59.4,10.6-89.2,15.9c-4.1-2.4-8.1-4.8-12.2-7.2
		c-3.8,3.8-7.5,7.6-11.3,11.4c-44,7.9-88.1,15.7-132.1,23.6c-5.1-8.9-10.2-17.9-15.3-26.8c5.2-1.6,10.4-3.2,15.6-4.8
		c0.5-76.8,0.9-153.5,1.4-230.3c5.3-11.4,10.5-22.7,15.8-34.1c-5.2-7.6-10.3-15.3-15.5-22.9c0.4-72.5,0.9-144.9,1.3-217.4
		c22.4-4.7,44.8-9.3,67.2-13.9c53.7-11,107.4-21.9,161.2-32.6c3.4-10.5,6.7-20.9,10.1-31.4C-5612.4-2419-5607.2-2410.3-5602-2401.5z
		"/>
	<path class="st6" d="M-5356.9-2090.8c26.3,16.6,35.6,60.3,27.9,131c-3.9,35.5-10.3,69.3-19.4,101.4l-94.1,14.3
		c-5.1-8.9-10.2-17.8-15.3-26.7c7.7-3.4,15.4-6.7,23.1-10.1c2.2-10.5,4.8-23.3,7.5-37.9c9.8-52.5,11.9-78.3,1.6-96.6
		c-8-14.3-18.4-16.8-31.2-7.5c-8.9,6.6-15.8,14.8-20.7,24.7c-1.2,3.3-2.3,5.8-3.3,7.3c1.3,66.9,2.7,120.5,4.4,161l-73.5,0.5
		c-1.9-3.5-3.8-7-5.9-10.5c-3.2-5.6-6.5-10.9-9.8-16c-0.8-80-1.7-160.1-2.5-240.1c22.3-0.3,44.5-0.6,66.8-1c0.1-9,0.2-17.9,0.3-26.9
		c5.1,8.9,10.2,17.8,15.3,26.7c1.1,10.3,2.3,20.7,3.4,31c19.6-17.9,43.9-28.4,72.8-31.7c14.5-1.4,27.1-1.1,37.9,0.9
		C-5365.7-2095.2-5360.8-2093.1-5356.9-2090.8z"/>
	<path class="st6" d="M-5048.5-1887.3c7.3,56.1,8.3,93.2,3.1,111.1c-3.9,33.2-23.7,58.5-59.6,76c-17.9,8.9-35.4,14.3-52.5,16.4
		c-11.5,1.4-61.8,7.3-106.3-26.6c-26.7-20.3-39.3-45.9-44.9-60c21.3-8.5,42.5-17,63.8-25.5c4.8,11.3,15.9,32.6,38.7,45
		c3.9,2.1,10.3,6.7,19.8,7.2c35.9,1.6,57.6-12.3,65.1-41.6c3.6-14.5,3.8-29.3,0.3-44.3l-9.2-49.4l-0.3,1l-2.7-16.7
		c-21.8,7.7-38.4,11.6-49.8,11.6c-32,0-59.4-10.9-82.1-32.7c-22.7-21.6-34.1-47.7-34.1-78.4c0-30.7,11.4-56.8,34.1-78.4
		s50.1-32.4,82.1-32.4c3.6,0,8.2,0.3,13.6,1l-3.1-18.1c21.9-4.4,43.8-8.8,65.7-13.1c0.8-10.1,1.7-20.2,2.5-30.2
		c5.1,8.9,10.2,17.8,15.3,26.7c11.4,70,34.4,209.6,34.4,209.6c1.6,9.3,3.1,19.1,4.4,29.3
		C-5049.7-1895.7-5049.1-1891.5-5048.5-1887.3z M-5151.5-1994.3c0-1.1-0.1-3.5-0.3-7.2l-2.7-16.4c-2.7-9.5-6.7-17.2-11.9-22.8
		c-5.7-6.1-11.8-9.2-18.4-9.2c-9.1,0-16.9,5.5-23.5,16.4c-6.4,10.9-9.5,24-9.5,39.2c0,15.5,3.2,28.5,9.5,39.2
		c6.6,10.9,14.4,16.4,23.5,16.4c9.3,0,17.3-5.5,23.9-16.4C-5154.6-1965.8-5151.5-1978.9-5151.5-1994.3z"/>
	<path class="st6" d="M-4937.6-1788.4l-54.5,7.4c-5.1-8.9-10.2-17.8-15.3-26.7c3.4-2.7,6.8-5.5,10.1-8.2
		c-21.1-143.7-42.3-287.3-63.4-431c24.9-0.1,49.8-0.2,74.7-0.3c3.2-8.9,6.5-17.8,9.7-26.7c5.1,8.9,10.2,17.7,15.3,26.6
		C-4953.2-2094.4-4945.4-1941.4-4937.6-1788.4z"/>
	<path class="st6" d="M-4842.2-2103.5c-8.6,9.5-19,14.3-31,14.3s-22.4-4.8-31-14.3s-13-21.1-13-34.8c0-13.4,4.3-24.9,13-34.4
		c8.6-9.5,19-14.3,31-14.3s22.4,4.8,31,14.3s13,21,13,34.4C-4829.3-2124.7-4833.6-2113.1-4842.2-2103.5z M-4909.7-2036.4
		c6.9,61.8,13.9,123.7,20.8,185.5c-3.8,3.2-7.5,6.3-11.3,9.5c5.1,9,10.2,17.9,15.4,26.9c24.1-6.4,48.2-12.7,72.2-19.1l0.7-223.6
		c-5.1-8.8-10.2-17.6-15.3-26.4c-4.3,10.8-8.5,21.6-12.8,32.4C-4863.2-2046.3-4886.5-2041.3-4909.7-2036.4z"/>
	<path class="st6" d="M-4557-1905.1c5.5,16.8,5.9,32.2,1.4,46c-4.3,13.6-13.4,24.8-27.3,33.4c-24.8,15.4-58.6,20.8-101.6,16
		c-42.9-4.8-71.9-17.2-86.9-37.1c-6.5-10.7-12.9-21.4-19.4-32.1c12.9-14,25.9-27.9,38.8-41.9l12.6,20.4
		c6.8,11.1,20.2,19.7,40.2,25.6c20.2,5.9,37.3,6.2,51.1,1c5.5-1.8,9.8-3.9,13-6.1c2.3-1.6,3.2-2.4,2.7-2.4
		c-0.7-8.9-24.1-24.3-70.2-46.3l-10.9-5.5c-19.5-9.8-34.5-22.3-45-37.5s-14.9-31-13.3-47.4c0.2-2,0.5-4.1,0.7-6.1
		c5.2-27,24.4-45.8,57.6-56.2c27.3-8.6,50-7.7,74-5.8c24.6,2,44.8,7,58.8,11.2c3.8-3.4,7.7-6.8,11.5-10.3
		c5.1,8.9,10.2,17.8,15.3,26.6l-36.5,56.6l-5.1,8.2l-14.3-5.5l-21.1-7.8c-17.3-5.5-28.5-5.8-33.7-1c-2,1.8-3,5.5-2.7,10.9
		c1.6,4.1,15.1,14,40.6,29.6c20.4,12.7,35,22.6,43.6,29.7C-4569.1-1927.5-4560.4-1916.2-4557-1905.1z"/>
	<path class="st6" d="M-4317.1-2071.3c26.8,13.9,44.6,46.7,53.5,98.5c4.3,25.9,6,50.3,5.1,73.3l-2.4,52.1l-89.6,20.8
		c-5.1-8.9-10.2-17.9-15.3-26.8c6.7-2.5,13.5-5,20.2-7.5c1.8-14.8,3.2-27.9,4.3-39c5-49,5.9-75.8-5.8-93.7
		c-8.6-13.2-18.7-14.8-30.3-4.8c-8.4,7-14.4,15.5-18.1,25.2c-1.1,3.4-2,5.9-2.7,7.5c-14.5,64.5-19.4,116.2-14.7,155.1l-71.2,6.1
		c-5.1-8.9-10.1-17.8-15.2-26.7c3.6-1.4,7.2-2.9,10.8-4.3c-22.2-146.1-44.3-292.2-66.5-438.2c28,0.7,56,1.5,84,2.2
		c5.2-8.7,10.4-17.3,15.6-26c5.1,8.9,10.2,17.9,15.3,26.8c1.4,77.5,2.7,155,4.1,232.4c17.5-18.9,40.2-30.9,68.2-36.1
		c13.9-2.5,26-3.2,36.5-2c5.7,1.4,8.5,2,8.5,2S-4320.9-2073.3-4317.1-2071.3z"/>
	<path class="st0" d="M-5546.1-2820.3c130.6,7,222.1,30.4,274.3,70.2c42,31.6,58,73,48.1,124.4c-6.8,36.4-26.4,75.9-58.6,118.6
		c-16.1,21.4-31.5,39-46,52.8c42.5,41.4,60.8,78.2,54.9,110.4c-5,25.7-25.3,47.9-61,66.8c-40.9,21.6-89.5,35.6-145.9,41.9
		c-5-6.5-10-13-15-19.5c3.7-4.9,7.4-9.8,11.2-14.7C-5504.8-2452.9-5525.5-2636.6-5546.1-2820.3z M-5423.8-2514.2
		c18.2-3.4,32.8-12.5,44-27.3c11.1-14.8,15.8-31.5,14-50.1s-9.7-34.2-23.5-46.7c-13.6-12.5-29.6-18.7-48.1-18.7L-5423.8-2514.2z
		 M-5406.7-2317.6c14.3-2.3,26-8.3,35.1-18.1c9.1-9.5,13.1-20.3,11.9-32.4c-1.1-12-7-22-17.7-30c-10.9-7.9-23.6-11.7-38.2-11.2
		L-5406.7-2317.6z"/>
	<path class="st0" d="M-4964.9-2346.7l-80.4,14c-5.1-6.5-10.1-13-15.2-19.4c4.4-1.5,8.9-2.9,13.3-4.4c-10.4,5.8-34.2,18.4-65.5,15.4
		c-36-3.4-65.5-18.3-88.6-44.9c-23.3-26.8-33.3-57.4-30.1-91.8c3.2-34.4,18.8-62.6,46.6-84.6c27.6-21.8,59.4-31.1,95.4-27.7
		c12.2,1.1,24.3,4,36.2,8.5l3.8-18.1c16.7-0.1,33.4-0.2,50.1-0.3c1.1-6.5,2.3-13,3.4-19.6c5,6.5,10,13,15,19.4
		C-4975.5-2515.6-4970.2-2431.1-4964.9-2346.7z M-5103-2389c11.5,1.1,22-4.9,31.5-17.9c9.4-12.8,15-28.7,16.8-47.7
		c1.8-19.2-0.7-36-7.6-50.3c-6.9-14.6-16-22.4-27.6-23.5c-11.8-1.1-22.4,4.9-31.8,17.9c-9.4,12.8-15,28.8-16.8,48.1
		c-1.8,19,0.8,35.7,7.6,50C-5124.1-2398-5114.8-2390.2-5103-2389z"/>
	<path class="st0" d="M-4803.7-2489.5l13.3,210.3l-59.6,13.6c-5.1-6.4-10.1-12.9-15.2-19.3c3.8-2.5,7.6-5.1,11.4-7.6
		c-8.7-62.1-17.5-124.3-26.2-186.4c-16.9,2.4-33.9,4.8-50.8,7.2c-5-6.5-10-12.9-15-19.4c3.7-1.5,7.5-3,11.2-4.5
		c-1.1-7-2.2-14.1-3.4-21.1c17.4-1.6,34.8-3.2,52.1-4.8l-25.6-182.7c23.3-4.6,46.6-9.2,70-13.8c2.7-8,5.4-16,8.1-24
		c5,6.5,10,12.9,15,19.4c4.1,64.6,8.2,129.3,12.3,193.9c6.7-0.6,13.3-1.1,20-1.7c0.2-6.9,0.5-13.8,0.7-20.7c5,6.5,10,12.9,15,19.4
		c0.7,12.5,1.4,25,2,37.5L-4803.7-2489.5z"/>
	<path class="st0" d="M-4492.2-2356.7l-54.9,3.4c-5-6.5-10-12.9-15-19.4c4.3-2.9,8.6-5.8,12.9-8.6
		c-10.8-147.2-21.6-294.4-32.4-441.6c23.5,1.6,47.1,3.2,70.6,4.8c4.6-5.8,9.3-11.5,13.9-17.3c5,6.4,10,12.9,15,19.3
		C-4485.4-2663-4488.8-2509.9-4492.2-2356.7z"/>
	<path class="st1" d="M-5561.2-2839.6c130.6,7,222.1,30.4,274.3,70.2c42,31.6,58,73,48.1,124.4c-6.8,36.4-26.4,75.9-58.6,118.6
		c-16.1,21.4-31.5,39-46,52.8c42.5,41.4,60.8,78.2,54.9,110.4c-5,25.7-25.3,47.9-61,66.8c-40.9,21.6-89.5,35.6-145.9,41.9
		L-5561.2-2839.6z M-5438.8-2533.6c18.2-3.4,32.8-12.5,44-27.3c11.1-14.8,15.8-31.5,14-50.1s-9.7-34.2-23.5-46.7
		c-13.6-12.5-29.6-18.7-48.1-18.7L-5438.8-2533.6z M-5421.8-2336.9c14.3-2.3,26-8.3,35.1-18.1c9.1-9.5,13.1-20.3,11.9-32.4
		c-1.1-12-7-22-17.7-30c-10.9-7.9-23.6-11.7-38.2-11.2L-5421.8-2336.9z"/>
	<path class="st1" d="M-4980-2366l-80.4,14l-1.9-23.8c-28,11.8-49.8,16.9-65.5,15.4c-36-3.4-65.5-18.3-88.6-44.9
		c-23.3-26.8-33.3-57.4-30.1-91.8c3.2-34.4,18.8-62.6,46.6-84.6c27.6-21.8,59.4-31.1,95.4-27.7c12.2,1.1,24.3,4,36.2,8.5l3.8-18.1
		l68.5-0.4L-4980-2366z M-5118-2408.4c11.5,1.1,22-4.9,31.5-17.9c9.4-12.8,15-28.7,16.8-47.7c1.8-19.2-0.7-36-7.6-50.3
		c-6.9-14.6-16-22.4-27.6-23.5c-11.8-1.1-22.4,4.9-31.8,17.9c-9.4,12.8-15,28.8-16.8,48.1c-1.8,19,0.8,35.7,7.6,50
		C-5139.1-2417.3-5129.8-2409.5-5118-2408.4z"/>
	<path class="st1" d="M-4818.8-2508.9l13.3,210.3l-59.6,13.6l-30-213.3l-50.8,7.2l-7.2-45l52.1-4.8l-25.6-182.7l93-18.4l12.3,193.9
		l35.8-3.1l2,37.5L-4818.8-2508.9z"/>
	<path class="st1" d="M-4507.2-2376.1l-54.9,3.4l-34.4-469.6l99.5,6.8L-4507.2-2376.1z"/>
	<path class="st7" d="M-4280.9-1999.2c65,137.6,326.8,138.8,174.1-68.5c15.8-8.7,80.6-62.2,80.6-62.2s135.1,218.7-10.5,279.8
		c-107,44.9-245.5-68.6-269.6-123L-4280.9-1999.2z"/>
	<path class="st1" d="M-5539.5-2661.3c-33.3-151.9-293.8-213-189,28.4c-17.7,5.1-94.5,43.5-94.5,43.5s-84.6-248.7,74.4-276.2
		c116.9-20.2,228.8,124.4,240.4,184.2L-5539.5-2661.3z"/>
	<path class="st6" d="M-5652.2-2235.9"/>
	<path class="st6" d="M-4835.1-2162.7c-25,17.1-50,34.2-75,51.3c-5.5-9.7-11.1-19.4-16.6-29.1c25.5-15.8,51-31.6,76.6-47.5
		C-4845.2-2179.5-4840.1-2171.1-4835.1-2162.7z"/>
	<path class="st7" d="M-5617.3-2428.2c0.8,4.7-4.7,43.9-16.6,117.6c-81.4,17.2-123.1,26.6-125.3,28.4c-2.1,1.8-5.3,31.1-9.4,87.9
		l115.9-42.4l9.2,116.2l1.3,11.5l-136.7,35.1l-6.9,123.6l172.7-51c0.4,4.8-5.2,43.8-16.7,117.2c-28.9,5.2-57.8,10.3-86.7,15.5
		c-4.1-2.7-8.3-5.4-12.4-8.1c-3.8,4.1-7.7,8.2-11.5,12.4c-44.7,8-89.4,16-134.1,24c0.5-82.2,1-164.4,1.5-246.6
		c6.4-3.6,12.8-7.1,19.2-10.7c-6.4-2.4-12.7-4.9-19.1-7.3c0.5-90.6,1.1-181.1,1.6-271.7c22.4-4.7,44.8-9.3,67.2-13.9
		c13.5-2.8,27-5.5,40.6-8.2c2.9,5,5.8,10.1,8.7,15.1c2.8-6.2,5.7-12.4,8.5-18.6C-5703.3-2410.9-5660.3-2419.5-5617.3-2428.2z"/>
	<path class="st7" d="M-5372.2-2117.5c26.3,16.6,35.6,60.3,27.9,131c-3.9,35.5-10.3,69.3-19.4,101.4l-94.1,14.3
		c0-0.2,1.8-8.2,5.2-23.9c4.2-18.8,7.5-35.8,10.1-50.8c8.7-50.6,9.2-82.8,1.6-96.6c-8-14.3-18.4-16.8-31.2-7.5
		c-8.9,6.6-15.8,14.8-20.7,24.7c-1.2,3.3-2.3,5.8-3.3,7.3c1.3,66.9,2.7,120.5,4.4,161l-73.5,0.5c0-0.2-18.2-266.6-18.2-266.6
		l82.5-1.2l3.4,31c19.6-17.9,43.9-28.4,72.8-31.7c14.5-1.4,27.1-1.1,37.9,0.9C-5380.9-2121.9-5376.1-2119.8-5372.2-2117.5z"/>
	<path class="st7" d="M-5063.8-1914c7.3,56.1,8.3,93.2,3.1,111.1c-3.9,33.2-23.7,58.5-59.6,76c-17.9,8.9-35.4,14.3-52.5,16.4
		c-42.5,3.9-77.9-5-106.3-26.6c-14.1-10.7-24-21.8-29.6-33.4l52.5-57.3c8,23.9,19.5,40.6,34.8,50.1c7.5,4.8,14.1,7.2,19.8,7.2
		c35.9,1.6,57.6-12.3,65.1-41.6c3.6-14.5,3.8-29.3,0.3-44.3l-9.2-49.4l-3.1-15.7c-21.8,7.7-38.4,11.6-49.8,11.6
		c-32,0-59.4-10.9-82.1-32.7c-22.7-21.6-34.1-47.7-34.1-78.4s11.4-56.8,34.1-78.4s50.1-32.4,82.1-32.4c3.6,0,8.2,0.3,13.6,1
		l-3.1-18.1l83.5-16.7l34.1,209.9c0,0,3.4,18.7,4.8,29L-5063.8-1914z M-5166.7-2021c0-1.1-0.1-3.5-0.3-7.2l-2.7-16.4
		c-2.7-9.5-6.7-17.2-11.9-22.8c-5.7-6.1-11.8-9.2-18.4-9.2c-9.1,0-16.9,5.5-23.5,16.4c-6.4,10.9-9.5,24-9.5,39.2
		c0,15.5,3.2,28.5,9.5,39.2c6.6,10.9,14.4,16.4,23.5,16.4c9.3,0,17.3-5.5,23.9-16.4C-5169.9-1992.5-5166.7-2005.6-5166.7-2021z"/>
	<path class="st7" d="M-4952.9-1815.1l-54.5,7.4l-68.6-465.9l99.7-0.5L-4952.9-1815.1z"/>
	<path class="st7" d="M-4857.5-2130.2c-8.6,9.5-19,14.3-31,14.3s-22.4-4.8-31-14.3s-13-21.1-13-34.8c0-13.4,4.3-24.9,13-34.4
		c8.6-9.5,19-14.3,31-14.3s22.4,4.8,31,14.3s13,21,13,34.4C-4844.5-2151.4-4848.8-2139.8-4857.5-2130.2z M-4925-2063.1l24.9,221.9
		l72.2-19.1l0.7-223.6L-4925-2063.1z"/>
	<path class="st7" d="M-4572.2-1931.8c5.5,16.8,5.9,32.2,1.4,46c-4.3,13.6-13.4,24.8-27.3,33.4c-24.8,15.4-58.6,20.8-101.6,16
		c-42.9-4.8-71.9-17.2-86.9-37.1l-4.1-5.5l23.5-68.5l12.6,20.4c6.8,11.1,20.2,19.7,40.2,25.6c20.2,5.9,37.3,6.2,51.1,1
		c5.5-1.8,9.8-3.9,13-6.1c2.3-1.6,3.2-2.4,2.7-2.4c-0.7-8.9-24.1-24.3-70.2-46.3l-10.9-5.5c-19.5-9.8-34.5-22.3-45-37.5
		s-14.9-31-13.3-47.4c0.2-2,0.5-4.1,0.7-6.1c5.2-27,24.4-45.8,57.6-56.2c17.7-5.7,42.4-7.6,74-5.8c35.4,2.3,60.9,9.2,76.3,20.8
		l9.2,6.8l-36.5,56.6l-5.1,8.2l-14.3-5.5l-21.1-7.8c-17.3-5.5-28.5-5.8-33.7-1c-2,1.8-3,5.5-2.7,10.9c1.6,4.1,15.1,14,40.6,29.6
		c20.4,12.7,35,22.6,43.6,29.7C-4584.4-1954.2-4575.7-1942.9-4572.2-1931.8z"/>
	<path class="st7" d="M-4332.3-2098c26.8,13.9,44.6,46.7,53.5,98.5c4.3,25.9,6,50.3,5.1,73.3l-2.4,52.1l-89.6,20.8
		c0-0.2,1.1-7.9,3.4-23.2c2.5-18.6,4.4-35.3,5.8-50.1c4.8-49.5,2.8-80.8-5.8-93.7c-8.6-13.2-18.7-14.8-30.3-4.8
		c-8.4,7-14.4,15.5-18.1,25.2c-1.1,3.4-2,5.9-2.7,7.5c-14.5,64.5-19.4,116.2-14.7,155.1l-71.2,6.1l-0.3-4.1l-70.5-465.2l114.9,3.1
		l4.1,232.4c17.5-18.9,40.2-30.9,68.2-36.1c13.9-2.5,26-3.2,36.5-2c5.7,1.4,8.5,2,8.5,2S-4336.2-2100-4332.3-2098z"/>
</g>
<g>
	<path class="st0" d="M1573.1,643.8c0.1,9.4,0.2,18.7,0.2,28.1c-15.5,9.3-47.8,25.3-86.3,20.8c-12.7-1.5-28.8-3.7-41.2-16.8
		c-7.4-7.8-12-18.4-13.7-31.6l166.7-42.6c-1.8-11.4-5.3-26.9-13-44c-17.8-39.6-48.3-66.7-50.6-65c-0.8,0.6,3.3,4.8,2.1,7.9
		c-2.7,6.6-28.9,5-102.1-14.4c-39.9,12.2-67,31.4-81.5,57.6c-23.3,42.1,4.2,103.9-3.7,106c-3.4,0.9-8.3-10.1-8.9-9.8
		c-1.3,0.7,15.7,59.8,65.6,91.7c3.2,2,18.7,12.5,41.9,17.9c28,6.5,56.4,6.2,85-1.1c1.2-0.4,2.4-0.7,3.6-1.1c2-0.5,4.1-1.1,6.1-1.6
		c17-5.2,34-12.8,51.2-22.8c-2-20-4.1-40-6.1-60C1583.2,656.6,1578.2,650.2,1573.1,643.8z M1432.8,560c2.5-4.1,8.2-13.2,19.6-17.5
		c13-4.9,25-0.2,30,1.7c22.6,8.8,31.3,31.3,33,36l-87.9,24.5C1426.1,599.6,1421.1,578.7,1432.8,560z"/>
	<path class="st1" d="M1573.2,643.6c-26.8,17.2-53.1,27-78.7,29.4c-1.1,0.1-2.3,0.2-3.4,0.4c-1.4,0-2.8,0.1-4.1,0.1
		c-5,0.2-10,0.1-15-0.3c-32.7-2.5-51-18.6-54.9-48.4l166.7-42.6c-6.1-24.3-10.5-39-13-44c-28.2-59.8-78.4-83.6-150.6-71.6
		c-10.2,2.4-53.4,13.7-78.1,54.7c-26.2,43.4-12.9,89-7.1,108.9c4,13.8,17,55.3,56.6,81.9c12.4,8.3,26.3,14.3,41.9,17.9
		c32.4,7.6,63.5,3.9,89.2-3.1c1.1-0.2,2.3-0.5,3.4-0.7c1.5-0.5,3-1.1,4.5-1.6c22-6.9,39.3-15.8,48.7-21.2
		c-1.4-13.3-2.7-26.5-4.1-39.8C1574.6,657.1,1573.9,650.3,1573.2,643.6z M1417.7,540.6c2.6-4.3,7.5-12.6,17.6-17
		c13.6-6,26.9-0.8,32,1.2c22.7,8.8,31.3,31.3,33,36l-87.9,24.5C1410.9,579.2,1406.7,559.1,1417.7,540.6z"/>
	<path class="st0" d="M1134.1,588.7l13.3,210.3l-59.6,13.6c-5.1-6.4-10.1-12.9-15.2-19.3c3.8-2.5,7.6-5.1,11.4-7.6
		c-8.7-62.1-17.5-124.3-26.2-186.4c-16.9,2.4-33.9,4.8-50.8,7.2c-5-6.5-10-12.9-15-19.4c3.7-1.5,7.5-3,11.2-4.5
		c-1.1-7-2.2-14.1-3.4-21.1c17.4-1.6,34.8-3.2,52.1-4.8L1026.5,374c23.3-4.6,46.6-9.2,70-13.8c2.7-8,5.4-16,8.1-24
		c5,6.5,10,12.9,15,19.4c4.1,64.6,8.2,129.3,12.3,193.9c6.7-0.6,13.3-1.1,20-1.7c0.2-6.9,0.5-13.8,0.7-20.7c5,6.5,10,12.9,15,19.4
		c0.7,12.5,1.4,25,2,37.5L1134.1,588.7z"/>
	<path class="st1" d="M1119.1,569.4l13.3,210.3l-59.6,13.6l-30-213.3l-50.8,7.2l-7.2-45l52.1-4.8l-25.6-182.7l93-18.4l12.3,193.9
		l35.8-3.1l2,37.5L1119.1,569.4z"/>
	<path class="st0" d="M221.9,193.2c130.6,7,222.1,30.4,274.3,70.2c42,31.6,58,73,48.1,124.4c-6.8,36.4-26.4,75.9-58.6,118.6
		c-16.1,21.4-31.5,39-46,52.8c42.5,41.4,60.8,78.2,54.9,110.4c-5,25.7-25.3,47.9-61,66.8c-41,21.6-89.6,35.6-145.9,41.9
		c-5-6.5-10-13-15-19.5c3.7-4.9,7.4-9.8,11.2-14.7C263.2,560.5,242.5,376.9,221.9,193.2z M344.2,499.2c18.2-3.4,32.8-12.5,44-27.3
		c11.1-14.8,15.8-31.5,14-50.1s-9.7-34.2-23.5-46.7c-13.6-12.5-29.6-18.7-48.1-18.7L344.2,499.2z M361.3,695.9
		c14.3-2.3,26-8.3,35.1-18.1c9.1-9.5,13.1-20.3,11.9-32.4c-1.1-12-7-22-17.7-30c-10.9-7.9-23.6-11.7-38.2-11.2L361.3,695.9z"/>
	<path class="st0" d="M803.1,666.8l-80.4,14c-5.1-6.5-10.1-13-15.2-19.4c4.4-1.5,8.9-2.9,13.3-4.4c-10.4,5.8-34.2,18.4-65.5,15.4
		c-36-3.4-65.5-18.3-88.6-44.9c-23.3-26.8-33.3-57.4-30.1-91.8s18.8-62.6,46.6-84.6c27.6-21.8,59.4-31.1,95.4-27.7
		c12.2,1.1,24.3,4,36.2,8.5l3.8-18.1c16.7-0.1,33.4-0.2,50.1-0.3c1.1-6.5,2.3-13,3.4-19.6c5,6.5,10,13,15,19.4
		C792.5,497.8,797.8,582.3,803.1,666.8z M665,624.4c11.5,1.1,22-4.9,31.5-17.9c9.4-12.8,15-28.7,16.8-47.7c1.8-19.2-0.7-36-7.6-50.3
		c-6.9-14.6-16-22.4-27.6-23.5c-11.8-1.1-22.4,4.9-31.8,17.9c-9.4,12.8-15,28.8-16.8,48.1c-1.8,19,0.8,35.7,7.6,50
		C643.9,615.5,653.2,623.3,665,624.4z"/>
	<path class="st0" d="M969.3,523.9l13.3,210.3L923,747.8c-5.1-6.4-10.1-12.9-15.2-19.3c3.8-2.5,7.6-5.1,11.4-7.6
		c-8.7-62.1-17.5-124.3-26.2-186.4c-16.9,2.4-33.9,4.8-50.8,7.2c-5-6.5-10-12.9-15-19.4c3.7-1.5,7.5-3,11.2-4.5
		c-1.1-7-2.2-14.1-3.4-21.1c17.4-1.6,34.8-3.2,52.1-4.8l-25.6-182.7c23.3-4.6,46.6-9.2,70-13.8c2.7-8,5.4-16,8.1-24
		c5,6.5,10,12.9,15,19.4c4.1,64.6,8.2,129.3,12.3,193.9c6.7-0.6,13.3-1.1,20-1.7c0.2-6.9,0.5-13.8,0.7-20.7c5,6.5,10,12.9,15,19.4
		c0.7,12.5,1.4,25,2,37.5L969.3,523.9z"/>
	<path class="st0" d="M1280.8,656.7l-54.9,3.4c-5-6.5-10-12.9-15-19.4c4.3-2.9,8.6-5.8,12.9-8.6c-10.8-147.2-21.6-294.4-32.4-441.6
		c23.5,1.6,47.1,3.2,70.6,4.8c4.6-5.8,9.3-11.5,13.9-17.3c5,6.4,10,12.9,15,19.3C1287.6,350.4,1284.2,503.6,1280.8,656.7z"/>
	<path class="st1" d="M206.8,173.8c130.6,7,222.1,30.4,274.3,70.2c42,31.6,58,73,48.1,124.4c-6.8,36.4-26.4,75.9-58.6,118.6
		c-16.1,21.4-31.5,39-46,52.8c42.5,41.4,60.8,78.2,54.9,110.4c-5,25.7-25.3,47.9-61,66.8c-40.9,21.6-89.5,35.6-145.9,41.9
		L206.8,173.8z M329.2,479.9c18.2-3.4,32.8-12.5,44-27.3c11.1-14.8,15.8-31.5,14-50.1s-9.7-34.2-23.5-46.7
		c-13.6-12.5-29.6-18.7-48.1-18.7L329.2,479.9z M346.2,676.5c14.3-2.3,26-8.3,35.1-18.1c9.1-9.5,13.1-20.3,11.9-32.4
		c-1.1-12-7-22-17.7-30c-10.9-7.9-23.6-11.7-38.2-11.2L346.2,676.5z"/>
	<path class="st1" d="M788,647.4l-80.4,14l-1.9-23.8c-28,11.8-49.8,16.9-65.5,15.4c-36-3.4-65.5-18.3-88.6-44.9
		c-23.3-26.8-33.3-57.4-30.1-91.8s18.8-62.6,46.6-84.6c27.6-21.8,59.4-31.1,95.4-27.7c12.2,1.1,24.3,4,36.2,8.5l3.8-18.1L772,394
		L788,647.4z M650,605c11.5,1.1,22-4.9,31.5-17.9c9.4-12.8,15-28.7,16.8-47.7c1.8-19.2-0.7-36-7.6-50.3c-6.9-14.6-16-22.4-27.6-23.5
		c-11.8-1.1-22.4,4.9-31.8,17.9c-9.4,12.8-15,28.8-16.8,48.1c-1.8,19,0.8,35.7,7.6,50C628.9,596.1,638.2,603.9,650,605z"/>
	<path class="st1" d="M954.2,504.6l13.3,210.3l-59.6,13.6l-30-213.3l-50.8,7.2l-7.2-45l52.1-4.8l-25.6-182.7l93-18.4l12.3,193.9
		l35.8-3.1l2,37.5L954.2,504.6z"/>
	<path class="st1" d="M1265.8,637.3l-54.9,3.4l-34.4-469.6l99.5,6.8L1265.8,637.3z"/>
	<path class="st6" d="M3016.4,674.5c-6,1.3-11.9,2.6-17.9,3.8v-25.5c1.4-0.8,2.9-1.5,4.3-2.3
		C3007.4,658.5,3011.9,666.5,3016.4,674.5z"/>
	<path class="st6" d="M1973,191.5c0.8,4.7-4.7,43.9-16.6,117.6c-81.4,17.2-123.1,26.6-125.3,28.4c-2.1,1.8-5.3,31.1-9.4,87.9
		c32.2-11.8,64.4-23.5,96.6-35.3c1.4-11.3,2.8-22.5,4.2-33.8c5.1,8.9,10.1,17.8,15.2,26.7c3.1,38.7,6.2,77.5,9.2,116.2l1.3,11.5
		l-136.7,35.1l-6.9,123.6c50-14.7,99.9-29.5,149.9-44.2c2.6-11.1,5.1-22.3,7.7-33.4c5.1,8.9,10.1,17.8,15.2,26.6
		c-1.2,10.8-2.3,21.8-3.9,32.9c-2.8,19.5-7,47.7-12.8,84.3c-29.7,5.3-200.7,35.8-244.7,43.7c-5.1-8.9-10.2-17.9-15.3-26.8
		c5.2-1.6,10.4-3.2,15.6-4.8c0.5-76.8,0.9-153.5,1.4-230.3c5.3-11.4,10.5-22.7,15.8-34.1c-5.2-7.6-10.3-15.3-15.5-22.9
		c0.4-72.5,0.9-144.9,1.3-217.4c22.4-4.7,44.8-9.3,67.2-13.9c53.7-11,107.4-21.9,161.2-32.6c3.4-10.5,6.7-20.9,10.1-31.4
		C1962.6,174,1967.8,182.7,1973,191.5z"/>
	<path class="st6" d="M2218.1,502.2c26.3,16.6,35.6,60.3,27.9,131c-3.9,35.5-10.3,69.3-19.4,101.4l-94.1,14.3
		c-5.1-8.9-10.2-17.8-15.3-26.7c7.7-3.4,15.4-6.7,23.1-10.1c2.2-10.5,4.8-23.3,7.5-37.9c9.8-52.5,11.9-78.3,1.6-96.6
		c-8-14.3-18.4-16.8-31.2-7.5c-8.9,6.6-15.8,14.8-20.7,24.7c-1.2,3.3-2.3,5.8-3.3,7.3c1.3,66.9,2.7,120.5,4.4,161l-73.5,0.5
		c-1.9-3.5-3.8-7-5.9-10.5c-3.2-5.6-6.5-10.9-9.8-16c-0.8-80-1.7-160.1-2.5-240.1c22.3-0.3,44.5-0.6,66.8-1c0.1-9,0.2-17.9,0.3-26.9
		c5.1,8.9,10.2,17.8,15.3,26.7c1.1,10.3,2.3,20.7,3.4,31c19.6-17.9,43.9-28.4,72.8-31.7c14.5-1.4,27.1-1.1,37.9,0.9
		C2209.3,497.8,2214.2,499.9,2218.1,502.2z"/>
	<path class="st6" d="M2526.5,705.7c7.3,56.1,8.3,93.2,3.1,111.1c-3.9,33.2-23.7,58.5-59.6,76c-17.9,8.9-35.4,14.3-52.5,16.4
		c-11.5,1.4-61.8,7.3-106.3-26.6c-26.7-20.3-39.3-45.9-44.9-60c21.3-8.5,42.5-17,63.8-25.5c4.8,11.3,15.9,32.6,38.7,45
		c3.9,2.1,10.3,6.7,19.8,7.2c35.9,1.6,57.6-12.3,65.1-41.6c3.6-14.5,3.8-29.3,0.3-44.3l-9.2-49.4l-0.3,1l-2.7-16.7
		c-21.8,7.7-38.4,11.6-49.8,11.6c-32,0-59.4-10.9-82.1-32.7c-22.7-21.6-34.1-47.7-34.1-78.4s11.4-56.8,34.1-78.4
		c22.7-21.6,50.1-32.4,82.1-32.4c3.6,0,8.2,0.3,13.6,1l-3.1-18.1c21.9-4.4,43.8-8.8,65.7-13.1c0.8-10.1,1.7-20.2,2.5-30.2
		c5.1,8.9,10.2,17.8,15.3,26.7c11.4,70,34.4,209.6,34.4,209.6c1.6,9.3,3.1,19.1,4.4,29.3C2525.3,697.3,2525.9,701.5,2526.5,705.7z
		 M2423.5,598.7c0-1.1-0.1-3.5-0.3-7.2l-2.7-16.4c-2.7-9.5-6.7-17.2-11.9-22.8c-5.7-6.1-11.8-9.2-18.4-9.2
		c-9.1,0-16.9,5.5-23.5,16.4c-6.4,10.9-9.5,24-9.5,39.2c0,15.5,3.2,28.5,9.5,39.2c6.6,10.9,14.4,16.4,23.5,16.4
		c9.3,0,17.3-5.5,23.9-16.4C2420.4,627.2,2423.5,614.1,2423.5,598.7z"/>
	<path class="st6" d="M2642.4,804.6l-54.5,7.4c-5.1-8.9-10.2-17.8-15.3-26.7c3.4-2.7,6.8-5.5,10.1-8.2
		c-21.1-143.7-42.3-287.3-63.4-431c24.9-0.1,49.8-0.2,74.7-0.3c3.2-8.9,6.5-17.8,9.7-26.7c5.1,8.9,10.2,17.7,15.3,26.6
		C2626.8,498.6,2634.6,651.6,2642.4,804.6z"/>
	<path class="st6" d="M2737.8,489.5c-8.6,9.5-19,14.3-31,14.3s-22.4-4.8-31-14.3s-13-21.1-13-34.8c0-13.4,4.3-24.9,13-34.4
		c8.6-9.5,19-14.3,31-14.3s22.4,4.8,31,14.3s13,21,13,34.4C2750.7,468.3,2746.4,479.9,2737.8,489.5z M2670.3,556.6
		c6.9,61.8,13.9,123.7,20.8,185.5c-3.8,3.2-7.5,6.3-11.3,9.5c5.1,9,10.2,17.9,15.4,26.9c24.1-6.4,48.2-12.7,72.2-19.1l0.7-223.6
		c-5.1-8.8-10.2-17.6-15.3-26.4c-4.3,10.8-8.5,21.6-12.8,32.4C2716.8,546.7,2693.5,551.7,2670.3,556.6z"/>
	<path class="st6" d="M3023,687.9c5.5,16.8,5.9,32.2,1.4,46c-4.3,13.6-13.4,24.8-27.3,33.4c-24.8,15.4-58.6,20.8-101.6,16
		c-42.9-4.8-71.9-17.2-86.9-37.1c-6.5-10.7-12.9-21.4-19.4-32.1c12.9-14,25.9-27.9,38.8-41.9l12.6,20.4
		c6.8,11.1,20.2,19.7,40.2,25.6c20.2,5.9,37.3,6.2,51.1,1c5.5-1.8,9.8-3.9,13-6.1c2.3-1.6,3.2-2.4,2.7-2.4
		c-0.7-8.9-24.1-24.3-70.2-46.3l-10.9-5.5c-19.5-9.8-34.5-22.3-45-37.5s-14.9-31-13.3-47.4c0.2-2,0.5-4.1,0.7-6.1
		c5.2-27,24.4-45.8,57.6-56.2c27.3-8.6,50-7.7,74-5.8c24.6,2,44.8,7,58.8,11.2c3.8-3.4,7.7-6.8,11.5-10.3
		c5.1,8.9,10.2,17.8,15.3,26.6l-36.5,56.6l-5.1,8.2l-14.3-5.5l-21.1-7.8c-17.3-5.5-28.5-5.8-33.7-1c-2,1.8-3,5.5-2.7,10.9
		c1.6,4.1,15.1,14,40.6,29.6c20.4,12.7,35,22.6,43.6,29.7C3010.9,665.5,3019.6,676.8,3023,687.9z"/>
	<path class="st6" d="M3262.9,521.7c26.8,13.9,44.6,46.7,53.5,98.5c4.3,25.9,6,50.3,5.1,73.3l-2.4,52.1l-89.6,20.8
		c-5.1-8.9-10.2-17.9-15.3-26.8c6.7-2.5,13.5-5,20.2-7.5c1.8-14.8,3.2-27.9,4.3-39c5-49,5.9-75.8-5.8-93.7
		c-8.6-13.2-18.7-14.8-30.3-4.8c-8.4,7-14.4,15.5-18.1,25.2c-1.1,3.4-2,5.9-2.7,7.5c-14.5,64.5-19.4,116.2-14.7,155.1l-71.2,6.1
		c-5.1-8.9-10.1-17.8-15.2-26.7c3.6-1.4,7.2-2.9,10.8-4.3c-22.2-146.1-44.3-292.2-66.5-438.2c28,0.7,56,1.5,84,2.2
		c5.2-8.7,10.4-17.3,15.6-26c5.1,8.9,10.2,17.9,15.3,26.8c1.4,77.5,2.7,155,4.1,232.4c17.5-18.9,40.2-30.9,68.2-36.1
		c13.9-2.5,26-3.2,36.5-2c5.7,1.4,8.5,2,8.5,2S3259.1,519.7,3262.9,521.7z"/>
	<path class="st6" d="M113.8,791.1"/>
	<path class="st6" d="M2744.9,430.3c-25,17.1-50,34.2-75,51.3c-5.5-9.7-11.1-19.4-16.6-29.1c25.5-15.8,51-31.6,76.6-47.5
		C2734.8,413.5,2739.9,421.9,2744.9,430.3z"/>
	<path class="st7" d="M1957.7,164.8c0.8,4.7-4.7,43.9-16.6,117.6c-81.4,17.2-123.1,26.6-125.3,28.4c-2.1,1.8-5.3,31.1-9.4,87.9
		l115.9-42.4l9.2,116.2l1.3,11.5l-136.7,35.1l-6.9,123.6l172.7-51c0.4,4.8-5.2,43.8-16.7,117.2c-28.9,5.2-200,35.7-244.7,43.7
		c0.5-82.2,2.7-445.8,3.2-536.3c22.4-4.7,44.8-9.3,67.2-13.9C1784.4,199.8,1914.7,173.5,1957.7,164.8z"/>
	<path class="st7" d="M2202.8,475.5c26.3,16.6,35.6,60.3,27.9,131c-3.9,35.5-10.3,69.3-19.4,101.4l-94.1,14.3
		c0-0.2,1.8-8.2,5.2-23.9c4.2-18.8,7.5-35.8,10.1-50.8c8.7-50.6,9.2-82.8,1.6-96.6c-8-14.3-18.4-16.8-31.2-7.5
		c-8.9,6.6-15.8,14.8-20.7,24.7c-1.2,3.3-2.3,5.8-3.3,7.3c1.3,66.9,2.7,120.5,4.4,161l-73.5,0.5c0-0.2-18.2-266.6-18.2-266.6
		l82.5-1.2l3.4,31c19.6-17.9,43.9-28.4,72.8-31.7c14.5-1.4,27.1-1.1,37.9,0.9C2194.1,471.1,2198.9,473.2,2202.8,475.5z"/>
	<path class="st7" d="M2511.2,679c7.3,56.1,8.3,93.2,3.1,111.1c-3.9,33.2-23.7,58.5-59.6,76c-17.9,8.9-35.4,14.3-52.5,16.4
		c-42.5,3.9-77.9-5-106.3-26.6c-14.1-10.7-24-21.8-29.6-33.4l52.5-57.3c8,23.9,19.5,40.6,34.8,50.1c7.5,4.8,14.1,7.2,19.8,7.2
		c35.9,1.6,57.6-12.3,65.1-41.6c3.6-14.5,3.8-29.3,0.3-44.3l-9.2-49.4l-3.1-15.7c-21.8,7.7-38.4,11.6-49.8,11.6
		c-32,0-59.4-10.9-82.1-32.7c-22.7-21.6-34.1-47.7-34.1-78.4s11.4-56.8,34.1-78.4c22.7-21.6,50.1-32.4,82.1-32.4
		c3.6,0,8.2,0.3,13.6,1l-3.1-18.1l83.5-16.7l34.1,209.9c0,0,3.4,18.7,4.8,29L2511.2,679z M2408.3,572c0-1.1-0.1-3.5-0.3-7.2
		l-2.7-16.4c-2.7-9.5-6.7-17.2-11.9-22.8c-5.7-6.1-11.8-9.2-18.4-9.2c-9.1,0-16.9,5.5-23.5,16.4c-6.4,10.9-9.5,24-9.5,39.2
		c0,15.5,3.2,28.5,9.5,39.2c6.6,10.9,14.4,16.4,23.5,16.4c9.3,0,17.3-5.5,23.9-16.4C2405.1,600.5,2408.3,587.4,2408.3,572z"/>
	<path class="st7" d="M2627.1,777.9l-54.5,7.4L2504,319.4l99.7-0.5L2627.1,777.9z"/>
	<path class="st7" d="M2722.5,462.8c-8.6,9.5-19,14.3-31,14.3s-22.4-4.8-31-14.3s-13-21.1-13-34.8c0-13.4,4.3-24.9,13-34.4
		c8.6-9.5,19-14.3,31-14.3s22.4,4.8,31,14.3s13,21,13,34.4C2735.5,441.6,2731.2,453.2,2722.5,462.8z M2655,529.9l24.9,221.9
		l72.2-19.1l0.7-223.6L2655,529.9z"/>
	<path class="st7" d="M3007.8,661.2c5.5,16.8,5.9,32.2,1.4,46c-4.3,13.6-13.4,24.8-27.3,33.4c-24.8,15.4-58.6,20.8-101.6,16
		c-42.9-4.8-71.9-17.2-86.9-37.1l-4.1-5.5l23.5-68.5l12.6,20.4c6.8,11.1,20.2,19.7,40.2,25.6c20.2,5.9,37.3,6.2,51.1,1
		c5.5-1.8,9.8-3.9,13-6.1c2.3-1.6,3.2-2.4,2.7-2.4c-0.7-8.9-24.1-24.3-70.2-46.3l-10.9-5.5c-19.5-9.8-34.5-22.3-45-37.5
		s-14.9-31-13.3-47.4c0.2-2,0.5-4.1,0.7-6.1c5.2-27,24.4-45.8,57.6-56.2c17.7-5.7,42.4-7.6,74-5.8c35.4,2.3,60.9,9.2,76.3,20.8
		l9.2,6.8l-36.5,56.6l-5.1,8.2l-14.3-5.5l-21.1-7.8c-17.3-5.5-28.5-5.8-33.7-1c-2,1.8-3,5.5-2.7,10.9c1.6,4.1,15.1,14,40.6,29.6
		c20.4,12.7,35,22.6,43.6,29.7C2995.6,638.8,3004.3,650.1,3007.8,661.2z"/>
	<path class="st7" d="M3247.7,495c26.8,13.9,44.6,46.7,53.5,98.5c4.3,25.9,6,50.3,5.1,73.3l-2.4,52.1l-89.6,20.8
		c0-0.2,1.1-7.9,3.4-23.2c2.5-18.6,4.4-35.3,5.8-50.1c4.8-49.5,2.8-80.8-5.8-93.7c-8.6-13.2-18.7-14.8-30.3-4.8
		c-8.4,7-14.4,15.5-18.1,25.2c-1.1,3.4-2,5.9-2.7,7.5c-14.5,64.5-19.4,116.2-14.7,155.1l-71.2,6.1l-0.3-4.1l-70.5-465.2l114.9,3.1
		l4.1,232.4c17.5-18.9,40.2-30.9,68.2-36.1c13.9-2.5,26-3.2,36.5-2c5.7,1.4,8.5,2,8.5,2S3243.8,493,3247.7,495z"/>
</g>
<g>
	<path class="st0" d="M-7455.1-3240.7c0,1.5,0,3.1,0,4.6c-2.5,1.5-7.9,4.2-14.2,3.4c-2.1-0.2-4.7-0.6-6.8-2.8c-1.2-1.3-2-3-2.3-5.2
		l27.4-7c-0.3-1.9-0.9-4.4-2.1-7.2c-2.9-6.5-8-11-8.3-10.7c-0.1,0.1,0.5,0.8,0.3,1.3c-0.4,1.1-4.7,0.8-16.8-2.4
		c-6.6,2-11,5.2-13.4,9.5c-3.8,6.9,0.7,17.1-0.6,17.4c-0.6,0.1-1.4-1.7-1.5-1.6c-0.2,0.1,2.6,9.8,10.8,15.1c0.5,0.3,3.1,2.1,6.9,2.9
		c4.6,1.1,9.3,1,14-0.2c0.1-0.7,0.1-1.5,0.2-2.2c0.5,0.6,1,1.2,1.4,1.8c2.8-0.9,5.6-2.1,8.4-3.8c-0.3-3.3-0.7-6.6-1-9.9
		C-7453.5-3238.5-7454.3-3239.6-7455.1-3240.7z M-7478.2-3254.4c0.4-0.7,1.4-2.2,3.2-2.9c2.1-0.8,4.1,0,4.9,0.3
		c3.7,1.5,5.1,5.1,5.4,5.9l-14.5,4C-7479.3-3247.9-7480.2-3251.4-7478.2-3254.4z"/>
	<path class="st1" d="M-7455.1-3240.7c-4.4,2.8-8.7,4.4-12.9,4.8c-0.1,0.5-0.2,1-0.3,1.5c-0.3-0.5-0.6-1-0.9-1.5c-0.8,0-1.6,0-2.5,0
		c-5.4-0.4-8.4-3.1-9-8l27.4-7c-1-4-1.7-6.4-2.1-7.2c-4.6-9.8-12.9-13.8-24.8-11.8c-1.3,0.4-2.6,0.9-3.7,1.4c0.1,1,0.2,2,0.4,3
		c-0.8-0.7-1.6-1.4-2.4-2.1c-9,4.8-11.7,13-8.3,24.6c3,9.1,8.4,14.6,16.2,16.4c5.3,1.2,10.5,0.6,14.7-0.5c0-0.6,0.1-1.2,0.1-1.8
		c0.4,0.5,0.8,1,1.2,1.5c3.6-1.1,6.5-2.6,8-3.5c-0.2-2.2-0.4-4.4-0.7-6.6C-7454.9-3238.5-7455-3239.6-7455.1-3240.7z
		 M-7480.7-3257.6c0.4-0.7,1.2-2.1,2.9-2.8c2.2-1,4.4-0.1,5.3,0.2c3.7,1.5,5.2,5.2,5.4,5.9l-14.5,4
		C-7481.8-3251.3-7482.5-3254.6-7480.7-3257.6z"/>
	<g>
		<g>
			<path class="st2" d="M-7427.6-3195.8c0,0-7.4-23.7-14.4-20.5s-10.5,11.8-7.7,14.3c2.8,2.4,8.6,5,9.4,5.3c2.6,1.3,4.8,7.5,4.8,7.5
				L-7427.6-3195.8z"/>
			<path class="st3" d="M-7435.7-3188.7l-0.2-0.5c0-0.1-2.2-6.1-4.7-7.3c-0.1,0-0.2-0.1-0.4-0.2c-1.6-0.7-6.5-3-9-5.2
				c-0.9-0.8-1.3-2.2-1-3.9c0.5-3.6,3.8-8.7,8.8-11c1-0.4,2-0.4,3.1,0.1c6.1,2.7,11.6,19.9,11.8,20.7l0.1,0.2L-7435.7-3188.7z
				 M-7441.1-3216.3c-0.3,0-0.5,0.1-0.8,0.2c-4.8,2.2-7.9,7-8.4,10.4c-0.2,1.5,0.1,2.6,0.8,3.3c2.4,2.1,7.2,4.3,8.8,5.1
				c0.2,0.1,0.4,0.2,0.5,0.2c2.3,1.1,4.3,5.8,4.8,7.2l7.4-6.1c-0.7-2-5.9-17.6-11.4-20C-7439.9-3216.3-7440.5-3216.4-7441.1-3216.3z
				"/>
		</g>
		<g>
			<path class="st2" d="M-7452.7-3213.2c0,0-1.1-1.4,0.8-3.5c2-2.1,4.1-0.8,7,1.5s3.6,4.6,2.6,5.7s-1.9,1.9-3,1.3"/>
			<path class="st2" d="M-7455.4-3207.7c0,0-2.4-2.6-0.7-4.4c1.7-1.8,2.6-1.9,6.9,0.9"/>
			<path class="st4" d="M-7456-3212c0,0,0.6,0.9,1.4,1.5s1.4,1,1.4,1s-0.8,0.2-1.4,1s-0.6,1.1-0.6,1.1s-1.4-1.8-1.3-2.7
				C-7456.5-3211.1-7456-3212-7456-3212z"/>
			<path class="st4" d="M-7451.9-3216.4c0,0,0,0.9,1.5,2.1c1.5,1.3,4.7,3.2,4.7,3.2s-1.1-0.4-2.2-0.2s-1.1,0.3-1.1,0.3l-3.9-2.5
				C-7452.9-3213.5-7453.6-3215-7451.9-3216.4z"/>
			<path class="st3" d="M-7449-3211c-0.1,0.1-0.2,0.1-0.3,0c-4.5-2.9-5.3-2.6-6.5-0.9c-1.3,1.7,0.7,4.1,0.7,4.1
				c0.1,0.1,0.1,0.3,0,0.4c-0.1,0.1-0.3,0.1-0.4,0s-2.2-2.7-0.7-4.7c1.6-2.1,3-2,7.2,0.8C-7448.9-3211.4-7448.9-3211.2-7449-3211
				C-7449-3211.1-7449-3211.1-7449-3211z"/>
			<path class="st5" d="M-7449.3-3202.7c0,0,0.1-0.8-0.3-1.7s-1.6-1.6-1.6-1.6"/>
			<path class="st2" d="M-7450.1-3205.3c0,0,1.4,0.2,3.5-1.3s2.5-4.8-0.2-4.8s-5.8,1.5-7.2,2.3c-1.3,0.8-2.2,2.4-2,5.2s0.8,6,6.8,7
				c5.5,0.9,10.1-1.8,13.7-5c3.8-3.4,5.9-7.4,4.6-10.9c-1.2-3.2-3.7-5.4-3.7-5.4"/>
			<path class="st2" d="M-7442.2-3220c0,0-0.1-1.2,1.3-2.1c1.4-0.9,4.2,0.8,5.5,2.6s0.6,3.5-0.3,4.1c-1.3,0.9-2.7,0-2.7,0"/>
			<path class="st4" d="M-7445-3210.5c0,0,1,0.7,1.8,0.5s1.5-1.3,1.5-1.3s-0.2,1.9-1.3,2.6c-1.1,0.8-2.3,0.4-2.3,0.4
				S-7444.7-3209.6-7445-3210.5z"/>
			<path class="st2" d="M-7447.7-3217.2c0,0-0.6-1.3,1.1-3c1.6-1.6,3.9-0.7,6.5,1.7s2.1,4.9,1,5.9c-1.3,1.3-2.8,0.5-2.8,0.5"/>
			<path class="st4" d="M-7447.1-3219.3c0,0,1,1.6,3,3.3s3.3,2.9,4.3,2.4s1.6-1.6,1.6-1.6s0,2.5-1.2,3.1s-2.5,0.3-2.5,0.3
				s-1.9-2.9-3.4-3.9s-2.4-1.6-2.4-1.6S-7447.6-3218.9-7447.1-3219.3z"/>
			<path class="st4" d="M-7442.1-3207.4c0,0,0.8-0.4,1.1-1.3c0.3-0.8,0.4-1.5,0.4-1.5s1.1,0.7,2.3-0.3c1.2-0.9,1.4-2.7,1.4-2.7
				s0.9,0.2,1.8-0.4c0.9-0.7,1.5-3.1,1.5-3.1l-1.2-1.3c0,0-0.1,2.2-0.9,2.5s-2.6,0.1-2.6,0.1s0.3,2.1-0.9,3
				c-1.2,0.9-2.8,0.7-2.8,0.7s0.3,1.7-0.5,2.6s-2.9,1-2.9,1l-1.1,1.6C-7446.3-3206.6-7442.8-3207.6-7442.1-3207.4"/>
			<path class="st3" d="M-7442.5-3208.8c-0.8,0.8-1.9,1.4-2.9,0.8c-0.1-0.1-0.2-0.2-0.1-0.4c0.1-0.1,0.2-0.2,0.4-0.1
				c1,0.5,2.1-0.3,2.7-1.2c1.2-1.7-0.7-3.8-2.5-5.3c-3.1-2.5-5-3.4-6.7-1.5c-1.8,1.9-0.8,3.1-0.8,3.2c0.1,0.1,0.1,0.3,0,0.4
				c-0.1,0.1-0.3,0.1-0.4,0s-1.3-1.6,0.9-3.8c2.2-2.3,4.6-0.7,7.4,1.5c3.7,2.9,3.4,4.9,2.6,6
				C-7442.1-3209.2-7442.3-3209-7442.5-3208.8z"/>
			<path class="st3" d="M-7442.1-3207.3c0,0.1-0.1,0.1-0.2,0.1c-4.3-0.1-7,3.2-7,3.2c-0.1,0.1-0.3,0.1-0.4,0s-0.1-0.3,0-0.4
				c0.1-0.1,2.9-3.5,7.4-3.4c0.1,0,0.3,0.1,0.3,0.3C-7442-3207.4-7442-3207.4-7442.1-3207.3z"/>
			<path class="st4" d="M-7435.6-3201.8c1.9-1.7,3.3-3.5,4.2-5.3c-8.8,8.9-13.9,8.3-17.9,7.3c-3.5-0.9-5.8-4.9-6.3-7.2
				c-0.3,0.8-0.5,1.9-0.4,3.2c0.2,2.8,0.8,6,6.8,7C-7443.8-3195.9-7439.2-3198.6-7435.6-3201.8z"/>
			<path class="st4" d="M-7452.8-3206.1c0,0,3.4,1.3,5.1,0.4c2.3-1.1,2.7-4,2.7-4s-2.4,1.7-3.8,2.3S-7452.8-3206.1-7452.8-3206.1z"
				/>
			<path class="st3" d="M-7434.2-3202.8c-0.4,0.4-0.8,0.8-1.2,1.2c-4.7,4.2-9.2,5.8-13.9,5c-6.1-1-6.8-4.3-7-7.2
				c-0.2-2.6,0.6-4.5,2.1-5.5c1-0.6,4.3-2.4,7.3-2.4c1.5,0,1.9,0.9,2.1,1.4c0.4,1.3-0.4,3-1.7,3.9c-2.1,1.5-3.6,1.3-3.7,1.3
				s-0.2-0.2-0.2-0.3s0.2-0.2,0.3-0.2c0,0,1.3,0.1,3.3-1.2c1.1-0.8,1.8-2.3,1.5-3.3c-0.2-0.6-0.7-1-1.6-1c-2.8-0.1-6.1,1.7-7,2.3
				c-1.4,0.8-2,2.6-1.9,5c0.2,2.9,0.8,5.8,6.5,6.7c4.5,0.7,8.9-0.9,13.5-4.9c4-3.6,5.7-7.5,4.5-10.6s-3.6-5.3-3.6-5.3
				c-0.1-0.1-0.1-0.3,0-0.4c0.1-0.1,0.3-0.1,0.4,0s2.6,2.3,3.8,5.5C-7429.7-3209.8-7430.9-3206.2-7434.2-3202.8z"/>
			<path class="st4" d="M-7441.8-3220.8c0,0,2.5,2.9,3.8,3.2s2.7-0.8,2.6-2s1.7,3-0.2,4c-2,1.1-2.7,0-2.7,0s-0.9-2.2-2.1-3.3
				s-1.8-1.3-1.8-1.3L-7441.8-3220.8z"/>
			<path class="st3" d="M-7438.9-3212.3L-7438.9-3212.3c-1.5,1.4-3.2,0.6-3.2,0.6c-0.1-0.1-0.2-0.2-0.1-0.4c0.1-0.1,0.2-0.2,0.4-0.1
				c0.1,0,1.4,0.7,2.5-0.4c0.5-0.5,0.8-1.3,0.8-2.1s-0.3-2.1-1.8-3.5c-2.7-2.5-4.8-3.1-6.1-1.7c-1.5,1.5-1,2.7-1,2.7
				c0.1,0.1,0,0.3-0.1,0.3c-0.1,0.1-0.3,0-0.3-0.1s-0.6-1.5,1.1-3.3c1.6-1.6,3.9-1,6.9,1.7c1.6,1.5,1.9,2.9,2,3.8
				C-7438-3213.8-7438.3-3212.9-7438.9-3212.3z"/>
			<path class="st3" d="M-7435.2-3215.5c-0.1,0.1-0.2,0.2-0.3,0.3c-1.2,0.8-2.4,0.3-2.9,0c-0.1-0.1-0.1-0.2-0.1-0.4
				c0.1-0.1,0.2-0.1,0.4-0.1c0,0,1.2,0.8,2.3,0c0.4-0.3,0.7-0.8,0.8-1.4c0.1-0.5,0.1-1.4-0.6-2.3c-1.3-1.8-3.9-3.3-5.1-2.5
				s-1.2,1.9-1.2,1.9c0,0.1-0.1,0.3-0.2,0.3s-0.3-0.1-0.3-0.2c0-0.1-0.1-1.4,1.4-2.4c1.6-1.1,4.6,0.9,5.9,2.7
				c0.8,1.1,0.8,2.1,0.7,2.7C-7434.6-3216.5-7434.9-3215.9-7435.2-3215.5z"/>
		</g>
	</g>
	<g>
		<g>
			<path class="st2" d="M-7720.1-3282.6c0,0,2.5,25.2,10.1,23.5s13-9.7,10.7-12.7s-7.6-6.8-8.2-7.3c-2.4-1.8-3.3-8.5-3.3-8.5
				L-7720.1-3282.6z"/>
			<path class="st3" d="M-7710.7-3258.7c-0.8,0-1.5-0.3-2.3-0.8c-5.5-4-7.4-22.4-7.5-23.1v-0.2l9.9-5.3l0.1,0.5
				c0,0.1,0.9,6.5,3.1,8.3c0.1,0.1,0.2,0.2,0.4,0.3c1.4,1.1,5.8,4.4,7.9,7.1c0.7,1,0.8,2.4,0.2,4.1c-1.3,3.5-5.6,7.9-11.1,9.1
				C-7710.1-3258.7-7710.4-3258.7-7710.7-3258.7z M-7719.7-3282.4c0.2,2.2,2.2,18.8,7.2,22.4c0.8,0.6,1.6,0.8,2.5,0.6
				c5.2-1.2,9.4-5.4,10.6-8.7c0.5-1.4,0.5-2.7-0.1-3.4c-2-2.6-6.3-5.9-7.8-6.9c-0.2-0.1-0.3-0.3-0.4-0.3c-2.1-1.6-3.1-6.6-3.3-8.2
				L-7719.7-3282.4z"/>
		</g>
		<g>
			<path class="st2" d="M-7698.6-3260c0,0,0.8,1.6-1.6,3.3s-4.3-0.1-6.7-3c-2.4-2.9-2.6-5.3-1.4-6.2s2.3-1.5,3.3-0.7"/>
			<path class="st2" d="M-7694.7-3264.9c0,0,1.8,3.1-0.2,4.6c-2.1,1.4-3,1.4-6.7-2.3"/>
			<path class="st4" d="M-7695-3260.5c0,0-0.5-1-1.1-1.7s-1.2-1.3-1.2-1.3s0.8-0.1,1.6-0.8c0.8-0.7,0.9-1,0.9-1s1,2.1,0.7,3
				C-7694.3-3261.3-7695-3260.5-7695-3260.5z"/>
			<path class="st4" d="M-7700.1-3256.9c0,0,0.2-0.9-1-2.4c-1.2-1.6-4-4.2-4-4.2s1,0.6,2.1,0.6s1.2-0.1,1.2-0.1l3.3,3.3
				C-7698.4-3259.7-7698-3258-7700.1-3256.9z"/>
			<path class="st3" d="M-7701.8-3262.9c0.1-0.1,0.2-0.1,0.3,0c3.8,3.9,4.8,3.7,6.3,2.3c1.6-1.5,0.2-4.2,0.2-4.2
				c-0.1-0.1,0-0.3,0.1-0.4c0.1-0.1,0.3,0,0.4,0.1s1.6,3.1-0.3,4.9c-2,1.8-3.4,1.4-7.1-2.3
				C-7701.9-3262.6-7701.9-3262.8-7701.8-3262.9L-7701.8-3262.9z"/>
			<path class="st5" d="M-7699.8-3271.2c0,0-0.3,0.8-0.1,1.8c0.2,1,1.2,2,1.2,2"/>
			<path class="st2" d="M-7699.5-3268.5c0,0-1.4-0.5-3.7,0.5c-2.4,1-3.5,4.3-0.8,4.9c2.7,0.6,6.2-0.3,7.7-0.8c1.4-0.5,2.7-2,3.1-4.8
				s0.5-6.2-5.3-8.4c-5.4-2.1-10.5-0.3-14.7,2.1c-4.5,2.6-7.5,6.2-6.9,10c0.5,3.5,2.6,6.2,2.6,6.2"/>
			<path class="st2" d="M-7710.5-3255.4c0,0-0.1,1.2-1.7,1.9s-4.1-1.7-5-3.7s0.1-3.6,1.1-4c1.5-0.6,2.7,0.6,2.7,0.6"/>
			<path class="st4" d="M-7705.7-3264.3c0,0-0.9-0.9-1.7-0.8c-0.9,0.1-1.8,0.9-1.8,0.9s0.5-1.8,1.8-2.3s2.4,0,2.4,0
				S-7705.8-3265.2-7705.7-3264.3z"/>
			<path class="st2" d="M-7704.4-3257.1c0,0,0.3,1.5-1.7,2.8s-4.1-0.1-6.1-3.1c-2.1-3-1.1-5.3,0.3-6.1c1.6-1,2.9,0.1,2.9,0.1"/>
			<path class="st4" d="M-7705.4-3255c0,0-0.7-1.8-2.3-3.9c-1.5-2.1-2.7-3.6-3.8-3.3c-1.1,0.3-2,1.2-2,1.2s0.5-2.5,1.9-2.9
				c1.3-0.4,2.5,0.3,2.5,0.3s1.3,3.3,2.6,4.6c1.3,1.2,2.1,2.1,2.1,2.1S-7704.8-3255.3-7705.4-3255z"/>
			<path class="st4" d="M-7708-3268c0,0-0.9,0.3-1.4,1c-0.5,0.8-0.8,1.4-0.8,1.4s-1-0.9-2.4-0.2s-2,2.4-2,2.4s-0.9-0.4-1.9,0.1
				s-2.2,2.8-2.2,2.8l1,1.6c0,0,0.5-2.2,1.5-2.3s2.6,0.4,2.6,0.4s0.2-2.2,1.5-2.8c1.4-0.6,2.9-0.1,2.9-0.1s0-1.8,1-2.5
				s3.1-0.4,3.1-0.4l1.4-1.4C-7703.6-3267.9-7707.3-3267.7-7708-3268"/>
			<path class="st3" d="M-7707.9-3266.6c0.9-0.6,2.1-1,3.1-0.2c0.1,0.1,0.1,0.3,0,0.4c-0.1,0.1-0.3,0.1-0.4,0
				c-0.9-0.7-2.1-0.1-3,0.7c-1.6,1.5-0.1,4,1.4,5.8c2.6,3.1,4.3,4.4,6.3,2.9c2.2-1.5,1.5-3,1.5-3c-0.1-0.1,0-0.3,0.1-0.4
				c0.1-0.1,0.3,0,0.4,0.1c0,0.1,0.9,1.9-1.7,3.7c-2.7,1.9-4.8-0.3-7.1-3c-3-3.7-2.4-5.6-1.4-6.6
				C-7708.3-3266.3-7708.1-3266.4-7707.9-3266.6z"/>
			<path class="st3" d="M-7707.9-3268.1c0.1,0,0.1-0.1,0.2,0c4.2,1,7.6-1.7,7.6-1.7c0.1-0.1,0.3-0.1,0.4,0s0.1,0.3,0,0.4
				c-0.1,0.1-3.6,2.9-8.1,1.8c-0.1,0-0.2-0.2-0.2-0.3C-7708-3268-7708-3268.1-7707.9-3268.1z"/>
			<path class="st4" d="M-7713.2-3275c-2.2,1.3-4.1,2.8-5.3,4.4c10.7-7,15.7-5.4,19.4-3.6c3.4,1.6,4.8,6.1,4.8,8.5
				c0.5-0.8,0.9-1.8,1-3.1c0.4-2.8,0.5-6.2-5.3-8.4C-7703.9-3279.2-7709-3277.4-7713.2-3275z"/>
			<path class="st4" d="M-7696.9-3267.1c0,0-3.1-2-5-1.4c-2.5,0.7-3.5,3.4-3.5,3.4s2.8-1.2,4.3-1.5
				C-7699.6-3267.1-7696.9-3267.1-7696.9-3267.1z"/>
			<path class="st3" d="M-7714.8-3274.3c0.5-0.3,1-0.6,1.5-0.9c5.5-3.2,10.4-3.9,14.9-2.1c5.9,2.3,5.9,5.7,5.5,8.7
				c-0.4,2.6-1.6,4.4-3.3,5c-1.1,0.4-4.8,1.5-7.8,0.8c-1.4-0.3-1.7-1.3-1.8-1.8c-0.1-1.3,1-2.9,2.5-3.6c2.4-1,3.9-0.6,3.9-0.5
				c0.1,0.1,0.2,0.2,0.2,0.3s-0.2,0.2-0.3,0.2c0,0-1.3-0.4-3.5,0.5c-1.3,0.6-2.3,1.9-2.2,3c0.1,0.7,0.5,1.1,1.4,1.3
				c2.8,0.6,6.5-0.5,7.5-0.8c1.5-0.5,2.6-2.1,2.9-4.6c0.4-2.9,0.4-6-5.1-8.1c-4.4-1.7-9.1-1-14.5,2.1c-4.8,2.8-7.3,6.3-6.8,9.7
				s2.5,6.1,2.5,6.1c0.1,0.1,0.1,0.3-0.1,0.4c-0.1,0.1-0.3,0.1-0.4-0.1c-0.1-0.1-2.1-2.8-2.6-6.3
				C-7720.9-3268.2-7718.9-3271.6-7714.8-3274.3z"/>
			<path class="st4" d="M-7711-3254.7c0,0-1.9-3.4-3.2-4s-2.9,0.2-3,1.5s-1.1-3.3,1.1-4s2.7,0.5,2.7,0.5s0.4,2.4,1.4,3.7
				s1.5,1.7,1.5,1.7L-7711-3254.7z"/>
			<path class="st3" d="M-7712.2-3263.8C-7712.2-3263.8-7712.1-3263.8-7712.2-3263.8c1.8-1.1,3.3,0.1,3.3,0.1c0.1,0.1,0.1,0.3,0,0.4
				c-0.1,0.1-0.3,0.1-0.4,0c0,0-1.3-1-2.6-0.1c-0.6,0.4-1.1,1.1-1.2,1.9c-0.2,0.8-0.1,2.2,1.1,3.8c2.2,3.1,4.1,4.1,5.8,3
				c1.8-1.2,1.6-2.5,1.6-2.5c0-0.1,0.1-0.3,0.2-0.3s0.3,0.1,0.3,0.2c0,0.1,0.3,1.7-1.8,3c-2,1.3-4.2,0.2-6.5-3.2
				c-1.3-1.8-1.3-3.3-1.1-4.2C-7713.4-3262.5-7712.9-3263.3-7712.2-3263.8z"/>
			<path class="st3" d="M-7716.5-3261.3c0.1-0.1,0.2-0.1,0.4-0.2c1.3-0.6,2.5,0.2,2.9,0.6c0.1,0.1,0.1,0.3,0,0.4
				c-0.1,0.1-0.3,0.1-0.4,0c0,0-1-1-2.3-0.5c-0.5,0.2-0.9,0.7-1.1,1.2s-0.3,1.4,0.1,2.5c0.9,2,3.3,4.2,4.6,3.6
				c1.4-0.6,1.6-1.6,1.6-1.7c0-0.1,0.2-0.3,0.3-0.2c0.1,0,0.3,0.1,0.2,0.3c0,0.1-0.2,1.4-1.9,2.1c-1.8,0.8-4.4-1.8-5.3-3.9
				c-0.6-1.3-0.4-2.3-0.1-2.9C-7717.4-3260.5-7717-3261-7716.5-3261.3z"/>
		</g>
	</g>
	<path class="st0" d="M-7527.4-3249.7l2.2,34.6l-9.8,2.2c-0.8-1.1-1.7-2.1-2.5-3.2c0.6-0.4,1.2-0.8,1.9-1.3
		c-1.4-10.2-2.9-20.4-4.3-30.7c-2.8,0.4-5.6,0.8-8.4,1.2c-0.8-1.1-1.7-2.1-2.5-3.2c0.6-0.2,1.2-0.5,1.9-0.7
		c-0.2-1.2-0.4-2.3-0.6-3.5c2.9-0.3,5.7-0.5,8.6-0.8l-4.2-30.1c3.8-0.8,7.7-1.5,11.5-2.3c0.4-1.3,0.9-2.6,1.3-3.9
		c0.8,1.1,1.6,2.1,2.5,3.2c0.7,10.6,1.3,21.3,2,31.9c1.1-0.1,2.2-0.2,3.3-0.3c0-1.1,0.1-2.3,0.1-3.4c0.8,1.1,1.6,2.1,2.5,3.2
		c0.1,2.1,0.2,4.1,0.3,6.2L-7527.4-3249.7z"/>
	<path class="st1" d="M-7529.8-3252.9l2.2,34.6l-9.8,2.2l-4.9-35.1l-8.4,1.2l-1.2-7.4l8.6-0.8l-4.2-30.1l15.3-3l2,31.9l5.9-0.5
		l0.3,6.2L-7529.8-3252.9z"/>
	<path class="st6" d="M-7515-3166.4c-1,0.2-2,0.4-2.9,0.6v-4.2c0.2-0.1,0.5-0.3,0.7-0.4C-7516.5-3169-7515.7-3167.7-7515-3166.4z"/>
	<path class="st0" d="M-7672.9-3286.9c-2.6-4.7-8-12.5-17.6-17.2c-4.1-2-10.3-5-14.5-2.5c-4.6,2.9-5.6,12.2-1.4,22.7
		c-4.2,0.8-8.6,2.2-13.2,4.4c-0.6,0.3-1.2,0.6-1.8,0.9c-5.5-15.7-3.6-30.9,5-38c3.8-3.1,8.1-3.9,9-4c12.5-2,23.3,9.5,29.1,15.6
		c3,3.2,6.9,8,10.5,14.7C-7669.5-3289.1-7671.2-3288-7672.9-3286.9z"/>
	<path class="st6" d="M-7466.7-3177.1c10.7,22.6,53.8,22.8,28.6-11.3c2.6-1.4,13.3-10.2,13.3-10.2s22.2,36-1.7,46
		c-17.6,7.4-40.4-11.3-44.4-20.2L-7466.7-3177.1z"/>
	<path class="st6" d="M-7685.9-3245.9c0.1,0.8-0.8,7.2-2.7,19.3c-13.4,2.8-20.3,4.4-20.6,4.7c-0.4,0.3-0.9,5.1-1.6,14.5
		c5.3-1.9,10.6-3.9,15.9-5.8c0.2-1.9,0.5-3.7,0.7-5.6c0.8,1.5,1.7,2.9,2.5,4.4c0.5,6.4,1,12.7,1.5,19.1l0.2,1.9l-22.5,5.8l-1.1,20.3
		c8.2-2.4,16.4-4.8,24.7-7.3c0.4-1.8,0.8-3.7,1.3-5.5c0.8,1.5,1.7,2.9,2.5,4.4c-0.2,1.8-0.4,3.6-0.6,5.4c-0.5,3.2-1.2,7.8-2.1,13.9
		c-4.9,0.9-9.8,1.7-14.7,2.6c-0.7-0.4-1.3-0.8-2-1.2c-0.6,0.6-1.2,1.3-1.9,1.9c-7.2,1.3-14.5,2.6-21.7,3.9c-0.8-1.5-1.7-2.9-2.5-4.4
		c0.9-0.3,1.7-0.5,2.6-0.8c0.1-12.6,0.1-25.3,0.2-37.9c0.9-1.9,1.7-3.7,2.6-5.6c-0.8-1.3-1.7-2.5-2.5-3.8
		c0.1-11.9,0.1-23.8,0.2-35.8c3.7-0.8,7.4-1.5,11.1-2.3c8.8-1.8,17.7-3.6,26.5-5.4c0.6-1.7,1.1-3.4,1.7-5.2
		C-7687.6-3248.8-7686.7-3247.3-7685.9-3245.9z"/>
	<path class="st6" d="M-7645.5-3194.8c4.3,2.7,5.9,9.9,4.6,21.6c-0.6,5.8-1.7,11.4-3.2,16.7l-15.5,2.4c-0.8-1.5-1.7-2.9-2.5-4.4
		c1.3-0.6,2.5-1.1,3.8-1.7c0.4-1.7,0.8-3.8,1.2-6.2c1.6-8.6,2-12.9,0.3-15.9c-1.3-2.4-3-2.8-5.1-1.2c-1.5,1.1-2.6,2.4-3.4,4.1
		c-0.2,0.5-0.4,0.9-0.5,1.2c0.2,11,0.4,19.8,0.7,26.5l-12.1,0.1c-0.3-0.6-0.6-1.1-1-1.7c-0.5-0.9-1.1-1.8-1.6-2.6
		c-0.1-13.2-0.3-26.3-0.4-39.5c3.7-0.1,7.3-0.1,11-0.2c0-1.5,0-3,0.1-4.4c0.8,1.5,1.7,2.9,2.5,4.4c0.2,1.7,0.4,3.4,0.6,5.1
		c3.2-2.9,7.2-4.7,12-5.2c2.4-0.2,4.5-0.2,6.2,0.1C-7647-3195.5-7646.2-3195.1-7645.5-3194.8z"/>
	<path class="st6" d="M-7594.8-3161.3c1.2,9.2,1.4,15.3,0.5,18.3c-0.6,5.5-3.9,9.6-9.8,12.5c-3,1.5-5.8,2.4-8.6,2.7
		c-1.9,0.2-10.2,1.2-17.5-4.4c-4.4-3.3-6.5-7.5-7.4-9.9c3.5-1.4,7-2.8,10.5-4.2c0.8,1.9,2.6,5.4,6.4,7.4c0.6,0.3,1.7,1.1,3.3,1.2
		c5.9,0.3,9.5-2,10.7-6.8c0.6-2.4,0.6-4.8,0.1-7.3l-1.5-8.1l-0.1,0.2l-0.4-2.7c-3.6,1.3-6.3,1.9-8.2,1.9c-5.3,0-9.8-1.8-13.5-5.4
		c-3.7-3.6-5.6-7.9-5.6-12.9s1.9-9.3,5.6-12.9c3.7-3.6,8.2-5.3,13.5-5.3c0.6,0,1.3,0.1,2.2,0.2l-0.5-3c3.6-0.7,7.2-1.4,10.8-2.2
		c0.1-1.7,0.3-3.3,0.4-5c0.8,1.5,1.7,2.9,2.5,4.4c1.9,11.5,5.7,34.5,5.7,34.5c0.3,1.5,0.5,3.1,0.7,4.8
		C-7595-3162.7-7594.9-3162-7594.8-3161.3z M-7611.7-3178.9c0-0.2,0-0.6-0.1-1.2l-0.4-2.7c-0.4-1.6-1.1-2.8-2-3.8s-1.9-1.5-3-1.5
		c-1.5,0-2.8,0.9-3.9,2.7c-1,1.8-1.6,3.9-1.6,6.4s0.5,4.7,1.6,6.4c1.1,1.8,2.4,2.7,3.9,2.7s2.8-0.9,3.9-2.7
		C-7612.2-3174.2-7611.7-3176.3-7611.7-3178.9z"/>
	<path class="st6" d="M-7576.5-3145l-9,1.2c-0.8-1.5-1.7-2.9-2.5-4.4c0.6-0.4,1.1-0.9,1.7-1.3c-3.5-23.6-7-47.3-10.4-70.9
		c4.1,0,8.2,0,12.3-0.1c0.5-1.5,1.1-2.9,1.6-4.4c0.8,1.5,1.7,2.9,2.5,4.4C-7579.1-3195.4-7577.8-3170.2-7576.5-3145z"/>
	<path class="st6" d="M-7560.8-3196.9c-1.4,1.6-3.1,2.4-5.1,2.4s-3.7-0.8-5.1-2.4c-1.4-1.6-2.1-3.5-2.1-5.7s0.7-4.1,2.1-5.7
		c1.4-1.6,3.1-2.4,5.1-2.4s3.7,0.8,5.1,2.4c1.4,1.6,2.1,3.5,2.1,5.7C-7558.7-3200.3-7559.4-3198.4-7560.8-3196.9z M-7571.9-3185.8
		c1.1,10.2,2.3,20.3,3.4,30.5c-0.6,0.5-1.2,1-1.9,1.6c0.8,1.5,1.7,2.9,2.5,4.4c4-1,7.9-2.1,11.9-3.1l0.1-36.8
		c-0.8-1.4-1.7-2.9-2.5-4.3c-0.7,1.8-1.4,3.6-2.1,5.3C-7564.3-3187.4-7568.1-3186.6-7571.9-3185.8z"/>
	<path class="st6" d="M-7513.9-3164.2c0.9,2.8,1,5.3,0.2,7.6c-0.7,2.2-2.2,4.1-4.5,5.5c-4.1,2.5-9.6,3.4-16.7,2.6
		c-7.1-0.8-11.8-2.8-14.3-6.1c-1.1-1.8-2.1-3.5-3.2-5.3c2.1-2.3,4.3-4.6,6.4-6.9l2.1,3.4c1.1,1.8,3.3,3.2,6.6,4.2
		c3.3,1,6.1,1,8.4,0.2c0.9-0.3,1.6-0.6,2.1-1c0.4-0.3,0.5-0.4,0.4-0.4c-0.1-1.5-4-4-11.6-7.6l-1.8-0.9c-3.2-1.6-5.7-3.7-7.4-6.2
		c-1.7-2.5-2.4-5.1-2.2-7.8c0-0.3,0.1-0.7,0.1-1c0.9-4.4,4-7.5,9.5-9.3c4.5-1.4,8.2-1.3,12.2-1c4.1,0.3,7.4,1.1,9.7,1.8
		c0.6-0.6,1.3-1.1,1.9-1.7c0.8,1.5,1.7,2.9,2.5,4.4l-6,9.3l-0.8,1.3l-2.4-0.9l-3.5-1.3c-2.8-0.9-4.7-1-5.6-0.2
		c-0.3,0.3-0.5,0.9-0.4,1.8c0.3,0.7,2.5,2.3,6.7,4.9c3.4,2.1,5.8,3.7,7.2,4.9C-7515.9-3167.9-7514.5-3166-7513.9-3164.2z"/>
	<path class="st6" d="M-7474.4-3191.6c4.4,2.3,7.3,7.7,8.8,16.2c0.7,4.3,1,8.3,0.8,12.1l-0.4,8.6l-14.7,3.4
		c-0.8-1.5-1.7-2.9-2.5-4.4c1.1-0.4,2.2-0.8,3.3-1.2c0.3-2.4,0.5-4.6,0.7-6.4c0.8-8.1,1-12.5-1-15.4c-1.4-2.2-3.1-2.4-5-0.8
		c-1.4,1.2-2.4,2.5-3,4.1c-0.2,0.6-0.3,1-0.4,1.2c-2.4,10.6-3.2,19.1-2.4,25.5l-11.7,1c-0.8-1.5-1.7-2.9-2.5-4.4
		c0.6-0.2,1.2-0.5,1.8-0.7c-3.6-24-7.3-48.1-10.9-72.1c4.6,0.1,9.2,0.2,13.8,0.4c0.9-1.4,1.7-2.8,2.6-4.3c0.8,1.5,1.7,2.9,2.5,4.4
		c0.2,12.7,0.4,25.5,0.7,38.2c2.9-3.1,6.6-5.1,11.2-5.9c2.3-0.4,4.3-0.5,6-0.3c0.9,0.2,1.4,0.3,1.4,0.3
		S-7475.1-3191.9-7474.4-3191.6z"/>
	<path class="st0" d="M-7676.7-3314.8c21.5,1.2,36.5,5,45.1,11.6c6.9,5.2,9.6,12,7.9,20.5c-1.1,6-4.3,12.5-9.6,19.5
		c-2.7,3.5-5.2,6.4-7.6,8.7c7,6.8,10,12.9,9,18.2c-0.8,4.2-4.2,7.9-10,11c-6.7,3.6-14.7,5.9-24,6.9c-0.8-1.1-1.6-2.1-2.5-3.2
		c0.6-0.8,1.2-1.6,1.8-2.4C-7669.9-3254.4-7673.3-3284.6-7676.7-3314.8z M-7656.5-3264.4c3-0.6,5.4-2.1,7.2-4.5
		c1.8-2.4,2.6-5.2,2.3-8.2c-0.3-3.1-1.6-5.6-3.9-7.7c-2.2-2.1-4.9-3.1-7.9-3.1L-7656.5-3264.4z M-7653.7-3232.1
		c2.4-0.4,4.3-1.4,5.8-3s2.1-3.3,2-5.3c-0.2-2-1.2-3.6-2.9-4.9c-1.8-1.3-3.9-1.9-6.3-1.9L-7653.7-3232.1z"/>
	<path class="st0" d="M-7581-3236.9l-13.2,2.3c-0.8-1.1-1.7-2.1-2.5-3.2c0.7-0.2,1.5-0.5,2.2-0.7c-1.7,1-5.6,3-10.8,2.5
		c-5.9-0.6-10.8-3-14.6-7.4c-3.8-4.4-5.5-9.4-4.9-15.1c0.5-5.7,3.1-10.3,7.7-13.9c4.5-3.6,9.8-5.1,15.7-4.6c2,0.2,4,0.7,6,1.4l0.6-3
		c2.7,0,5.5,0,8.2-0.1c0.2-1.1,0.4-2.1,0.6-3.2c0.8,1.1,1.6,2.1,2.5,3.2C-7582.8-3264.7-7581.9-3250.8-7581-3236.9z M-7603.7-3243.8
		c1.9,0.2,3.6-0.8,5.2-3c1.5-2.1,2.5-4.7,2.8-7.9s-0.1-5.9-1.3-8.3c-1.1-2.4-2.6-3.7-4.5-3.9s-3.7,0.8-5.2,2.9
		c-1.5,2.1-2.5,4.7-2.8,7.9c-0.3,3.1,0.1,5.9,1.3,8.2C-7607.2-3245.3-7605.7-3244-7603.7-3243.8z"/>
	<path class="st0" d="M-7554.5-3260.4l2.2,34.6l-9.8,2.2c-0.8-1.1-1.7-2.1-2.5-3.2c0.6-0.4,1.2-0.8,1.9-1.3
		c-1.4-10.2-2.9-20.4-4.3-30.7c-2.8,0.4-5.6,0.8-8.4,1.2c-0.8-1.1-1.7-2.1-2.5-3.2c0.6-0.2,1.2-0.5,1.9-0.7
		c-0.2-1.2-0.4-2.3-0.6-3.5c2.9-0.3,5.7-0.5,8.6-0.8l-4.2-30.1c3.8-0.8,7.7-1.5,11.5-2.3c0.4-1.3,0.9-2.6,1.3-3.9
		c0.8,1.1,1.6,2.1,2.5,3.2c0.7,10.6,1.3,21.3,2,31.9c1.1-0.1,2.2-0.2,3.3-0.3c0-1.1,0.1-2.3,0.1-3.4c0.8,1.1,1.6,2.1,2.5,3.2
		c0.1,2.1,0.2,4.1,0.3,6.2L-7554.5-3260.4z"/>
	<path class="st0" d="M-7503.2-3238.5l-9,0.6c-0.8-1.1-1.6-2.1-2.5-3.2c0.7-0.5,1.4-0.9,2.1-1.4c-1.8-24.2-3.6-48.4-5.3-72.7
		c3.9,0.3,7.7,0.5,11.6,0.8c0.8-0.9,1.5-1.9,2.3-2.8c0.8,1.1,1.6,2.1,2.5,3.2C-7502.1-3288.9-7502.7-3263.7-7503.2-3238.5z"/>
	<path class="st1" d="M-7679.1-3318c21.5,1.2,36.5,5,45.1,11.6c6.9,5.2,9.6,12,7.9,20.5c-1.1,6-4.3,12.5-9.6,19.5
		c-2.7,3.5-5.2,6.4-7.6,8.7c7,6.8,10,12.9,9,18.2c-0.8,4.2-4.2,7.9-10,11c-6.7,3.6-14.7,5.9-24,6.9L-7679.1-3318z M-7659-3267.6
		c3-0.6,5.4-2.1,7.2-4.5c1.8-2.4,2.6-5.2,2.3-8.2c-0.3-3.1-1.6-5.6-3.9-7.7c-2.2-2.1-4.9-3.1-7.9-3.1L-7659-3267.6z M-7656.2-3235.3
		c2.4-0.4,4.3-1.4,5.8-3s2.1-3.3,2-5.3c-0.2-2-1.2-3.6-2.9-4.9c-1.8-1.3-3.9-1.9-6.3-1.9L-7656.2-3235.3z"/>
	<path class="st1" d="M-7583.5-3240.1l-13.2,2.3l-0.3-3.9c-4.6,1.9-8.2,2.8-10.8,2.5c-5.9-0.6-10.8-3-14.6-7.4
		c-3.8-4.4-5.5-9.4-4.9-15.1c0.5-5.7,3.1-10.3,7.7-13.9c4.5-3.6,9.8-5.1,15.7-4.6c2,0.2,4,0.7,6,1.4l0.6-3l11.3-0.1L-7583.5-3240.1z
		 M-7606.2-3247c1.9,0.2,3.6-0.8,5.2-3c1.5-2.1,2.5-4.7,2.8-7.9s-0.1-5.9-1.3-8.3c-1.1-2.4-2.6-3.7-4.5-3.9s-3.7,0.8-5.2,2.9
		c-1.5,2.1-2.5,4.7-2.8,7.9c-0.3,3.1,0.1,5.9,1.3,8.2C-7609.7-3248.5-7608.2-3247.2-7606.2-3247z"/>
	<path class="st1" d="M-7557-3263.6l2.2,34.6l-9.8,2.2l-4.9-35.1l-8.4,1.2l-1.2-7.4l8.6-0.8l-4.2-30.1l15.3-3l2,31.9l5.9-0.5
		l0.3,6.2L-7557-3263.6z"/>
	<path class="st1" d="M-7505.7-3241.7l-9,0.6l-5.7-77.3l16.4,1.1L-7505.7-3241.7z"/>
	<path class="st7" d="M-7468.5-3179.7c10.7,22.6,53.8,22.8,28.6-11.3c2.6-1.4,13.3-10.2,13.3-10.2s22.2,36-1.7,46
		c-17.6,7.4-40.4-11.3-44.4-20.2L-7468.5-3179.7z"/>
	<path class="st1" d="M-7675.6-3288.6c-5.5-25-48.3-35.1-31.1,4.7c-2.9,0.8-15.5,7.2-15.5,7.2s-13.9-40.9,12.2-45.5
		c19.2-3.3,37.6,20.5,39.6,30.3L-7675.6-3288.6z"/>
	<path class="st6" d="M-7694.1-3218.6"/>
	<path class="st6" d="M-7559.7-3206.6c-4.1,2.8-8.2,5.6-12.3,8.4c-0.9-1.6-1.8-3.2-2.7-4.8c4.2-2.6,8.4-5.2,12.6-7.8
		C-7561.3-3209.4-7560.5-3208-7559.7-3206.6z"/>
	<path class="st7" d="M-7688.4-3250.3c0.1,0.8-0.8,7.2-2.7,19.3c-13.4,2.8-20.3,4.4-20.6,4.7c-0.4,0.3-0.9,5.1-1.6,14.5l19.1-7
		l1.5,19.1l0.2,1.9l-22.5,5.8l-1.1,20.3l28.4-8.4c0.1,0.8-0.9,7.2-2.7,19.3c-4.8,0.8-9.5,1.7-14.3,2.5c-0.7-0.4-1.4-0.9-2-1.3
		c-0.6,0.7-1.3,1.4-1.9,2c-7.4,1.3-14.7,2.6-22.1,3.9c0.1-13.5,0.2-27.1,0.2-40.6c1.1-0.6,2.1-1.2,3.2-1.8c-1-0.4-2.1-0.8-3.1-1.2
		c0.1-14.9,0.2-29.8,0.3-44.7c3.7-0.8,7.4-1.5,11.1-2.3c2.2-0.5,4.4-0.9,6.7-1.4c0.5,0.8,1,1.7,1.4,2.5c0.5-1,0.9-2,1.4-3.1
		C-7702.5-3247.4-7695.5-3248.9-7688.4-3250.3z"/>
	<path class="st7" d="M-7648-3199.2c4.3,2.7,5.9,9.9,4.6,21.6c-0.6,5.8-1.7,11.4-3.2,16.7l-15.5,2.4c0,0,0.3-1.3,0.9-3.9
		c0.7-3.1,1.2-5.9,1.7-8.4c1.4-8.3,1.5-13.6,0.3-15.9c-1.3-2.4-3-2.8-5.1-1.2c-1.5,1.1-2.6,2.4-3.4,4.1c-0.2,0.5-0.4,0.9-0.5,1.2
		c0.2,11,0.4,19.8,0.7,26.5l-12.1,0.1l-3-43.9l13.6-0.2l0.6,5.1c3.2-2.9,7.2-4.7,12-5.2c2.4-0.2,4.5-0.2,6.2,0.1
		C-7649.5-3199.9-7648.7-3199.5-7648-3199.2z"/>
	<path class="st7" d="M-7597.3-3165.7c1.2,9.2,1.4,15.3,0.5,18.3c-0.6,5.5-3.9,9.6-9.8,12.5c-3,1.5-5.8,2.4-8.6,2.7
		c-7,0.6-12.8-0.8-17.5-4.4c-2.3-1.8-3.9-3.6-4.9-5.5l8.6-9.4c1.3,3.9,3.2,6.7,5.7,8.2c1.2,0.8,2.3,1.2,3.3,1.2
		c5.9,0.3,9.5-2,10.7-6.8c0.6-2.4,0.6-4.8,0.1-7.3l-1.5-8.1l-0.5-2.6c-3.6,1.3-6.3,1.9-8.2,1.9c-5.3,0-9.8-1.8-13.5-5.4
		c-3.7-3.6-5.6-7.9-5.6-12.9s1.9-9.3,5.6-12.9c3.7-3.6,8.2-5.3,13.5-5.3c0.6,0,1.3,0.1,2.2,0.2l-0.5-3l13.7-2.7l5.6,34.5
		c0,0,0.6,3.1,0.8,4.8L-7597.3-3165.7z M-7614.2-3183.3c0-0.2,0-0.6-0.1-1.2l-0.4-2.7c-0.4-1.6-1.1-2.8-2-3.8s-1.9-1.5-3-1.5
		c-1.5,0-2.8,0.9-3.9,2.7c-1,1.8-1.6,3.9-1.6,6.4s0.5,4.7,1.6,6.4c1.1,1.8,2.4,2.7,3.9,2.7s2.8-0.9,3.9-2.7
		C-7614.8-3178.6-7614.2-3180.7-7614.2-3183.3z"/>
	<path class="st7" d="M-7579-3149.4l-9,1.2l-11.3-76.7l16.4-0.1L-7579-3149.4z"/>
	<path class="st7" d="M-7563.3-3201.3c-1.4,1.6-3.1,2.4-5.1,2.4s-3.7-0.8-5.1-2.4c-1.4-1.6-2.1-3.5-2.1-5.7s0.7-4.1,2.1-5.7
		c1.4-1.6,3.1-2.4,5.1-2.4s3.7,0.8,5.1,2.4c1.4,1.6,2.1,3.5,2.1,5.7C-7561.2-3204.7-7561.9-3202.8-7563.3-3201.3z M-7574.4-3190.2
		l4.1,36.5l11.9-3.1l0.1-36.8L-7574.4-3190.2z"/>
	<path class="st7" d="M-7516.4-3168.6c0.9,2.8,1,5.3,0.2,7.6c-0.7,2.2-2.2,4.1-4.5,5.5c-4.1,2.5-9.6,3.4-16.7,2.6
		c-7.1-0.8-11.8-2.8-14.3-6.1l-0.7-0.9l3.9-11.3l2.1,3.4c1.1,1.8,3.3,3.2,6.6,4.2c3.3,1,6.1,1,8.4,0.2c0.9-0.3,1.6-0.6,2.1-1
		c0.4-0.3,0.5-0.4,0.4-0.4c-0.1-1.5-4-4-11.6-7.6l-1.8-0.9c-3.2-1.6-5.7-3.7-7.4-6.2c-1.7-2.5-2.4-5.1-2.2-7.8c0-0.3,0.1-0.7,0.1-1
		c0.9-4.4,4-7.5,9.5-9.3c2.9-0.9,7-1.3,12.2-1c5.8,0.4,10,1.5,12.6,3.4l1.5,1.1l-6,9.3l-0.8,1.3l-2.4-0.9l-3.5-1.3
		c-2.8-0.9-4.7-1-5.6-0.2c-0.3,0.3-0.5,0.9-0.4,1.8c0.3,0.7,2.5,2.3,6.7,4.9c3.4,2.1,5.8,3.7,7.2,4.9
		C-7518.4-3172.3-7517-3170.4-7516.4-3168.6z"/>
	<path class="st7" d="M-7476.9-3195.9c4.4,2.3,7.3,7.7,8.8,16.2c0.7,4.3,1,8.3,0.8,12.1l-0.4,8.6l-14.7,3.4c0,0,0.2-1.3,0.6-3.8
		c0.4-3.1,0.7-5.8,1-8.2c0.8-8.2,0.5-13.3-1-15.4c-1.4-2.2-3.1-2.4-5-0.8c-1.4,1.2-2.4,2.5-3,4.1c-0.2,0.6-0.3,1-0.4,1.2
		c-2.4,10.6-3.2,19.1-2.4,25.5l-11.7,1l-0.1-0.7l-11.6-76.6l18.9,0.5l0.7,38.2c2.9-3.1,6.6-5.1,11.2-5.9c2.3-0.4,4.3-0.5,6-0.3
		c0.9,0.2,1.4,0.3,1.4,0.3S-7477.6-3196.3-7476.9-3195.9z"/>
</g>
<g>
	<text transform="matrix(1 0 0 1 -7713.3926 -2897.0115)" class="st7" style="font-family:'ArialMT'; font-size:15px;">Зарегистрироваться</text>
</g>
<g>
	<text transform="matrix(1 0 0 1 -7534.5098 -2897.0115)" class="st11" style="font-family:'ArialMT'; font-size:13px;">Забыли пароль?</text>
</g>
<g>
	<text transform="matrix(1 0 0 1 -7656.4248 -3063.7446)" class="st11" style="font-family:'ArialMT'; font-size:13px;">Логин</text>
</g>
<g>
	<path class="st6" d="M-7446.3-2932.6h-254.4c-11.3,0-20.6-9.2-20.6-20.6l0,0c0-11.3,9.2-20.6,20.6-20.6h254.4
		c11.3,0,20.6,9.2,20.6,20.6l0,0C-7425.7-2941.8-7435-2932.6-7446.3-2932.6z"/>
	<path class="st7" d="M-7446.3-2936h-254.4c-11.3,0-20.6-9.2-20.6-20.6l0,0c0-11.3,9.2-20.6,20.6-20.6h254.4
		c11.3,0,20.6,9.2,20.6,20.6l0,0C-7425.7-2945.3-7435-2936-7446.3-2936z"/>
</g>
<g>
	<rect x="-7654.7" y="-2962.6" class="st8" width="143" height="15"/>
	<text transform="matrix(1 0 0 1 -7609.9229 -2949.2878)" class="st12" style="font-family:'ArialMT'; font-size:19px;">Войти</text>
</g>
<g>
	<text transform="matrix(1 0 0 1 -7656.9141 -3015.3599)" class="st11" style="font-family:'ArialMT'; font-size:13px;">Пароль</text>
</g>
<line class="st9" x1="-7699.8" y1="-2997.6" x2="-7449.8" y2="-2997.6"/>
<line class="st9" x1="-7699.8" y1="-3045.1" x2="-7449.8" y2="-3045.1"/>
<g class="st10">
	<g>
		<g>
			<path class="st7" d="M-7683.9-3066.8L-7683.9-3066.8L-7683.9-3066.8c0.1,0,0.1,0,0.1,0c1,0,1.8-0.4,2.4-1c1.3-1.5,1.1-4,1.1-4.3
				c-0.1-1.8-0.9-2.7-1.7-3.1c-0.5-0.3-1.2-0.5-1.8-0.5l0,0l0,0l0,0c-0.4,0-1.1,0.1-1.8,0.5c-0.7,0.4-1.6,1.3-1.7,3.1
				c0,0.2-0.2,2.8,1.1,4.3C-7685.8-3067.1-7685-3066.8-7683.9-3066.8z M-7686.5-3072L-7686.5-3072c0.1-2.5,1.9-2.7,2.6-2.7l0,0l0,0
				c0.9,0,2.5,0.4,2.6,2.7l0,0c0,0,0.2,2.4-0.8,3.6c-0.4,0.5-1,0.7-1.8,0.7l0,0l0,0l0,0c-0.8,0-1.3-0.2-1.8-0.7
				C-7686.8-3069.6-7686.5-3072-7686.5-3072z"/>
			<path class="st7" d="M-7676.8-3062.5L-7676.8-3062.5C-7676.8-3062.6-7676.9-3062.6-7676.8-3062.5c0-0.8-0.1-2.4-1.6-2.9l0,0
				c-1.5-0.4-2.8-1.3-2.8-1.3c-0.2-0.1-0.5-0.1-0.6,0.1c-0.1,0.2-0.1,0.5,0.1,0.6c0.1,0,1.4,1,3.1,1.4c0.8,0.3,0.9,1.1,0.9,1.9v0.1
				c0,0.3,0,0.8-0.1,1.1c-0.6,0.3-2.7,1.4-6,1.4s-5.5-1.1-6-1.4c-0.1-0.3-0.1-0.8-0.1-1.1v-0.1c0-0.8,0.1-1.6,0.9-1.9
				c1.7-0.4,3.1-1.4,3.1-1.4c0.2-0.1,0.3-0.4,0.1-0.6c-0.1-0.2-0.4-0.3-0.6-0.1c0,0-1.3,0.9-2.8,1.3l0,0c-1.5,0.5-1.5,2.1-1.6,2.8
				v0.1l0,0c0,0.2,0,1.1,0.2,1.6c0,0.1,0.1,0.2,0.2,0.2c0.1,0.1,2.6,1.6,6.7,1.6s6.6-1.6,6.7-1.6c0.1-0.1,0.1-0.1,0.2-0.2
				C-7676.8-3061.4-7676.8-3062.4-7676.8-3062.5z"/>
		</g>
	</g>
</g>
<g class="st10">
	<g>
		<g>
			<path class="st7" d="M-7677.8-3021.1h-0.2v-2.2c0-2.9-2.3-5.2-5.2-5.2c-2.9,0-5.2,2.3-5.2,5.2c0,0.3,0.2,0.5,0.5,0.5
				s0.5-0.2,0.5-0.5c0-2.3,1.9-4.2,4.2-4.2c2.3,0,4.2,1.9,4.2,4.2v2.2h-9.7c-0.5,0-0.9,0.4-0.9,0.9v5.9c0,1.5,1.2,2.7,2.7,2.7h7.2
				c1.5,0,2.7-1.2,2.7-2.7v-5.9C-7676.8-3020.7-7677.3-3021.1-7677.8-3021.1z M-7677.8-3014.3c0,1-0.8,1.8-1.8,1.8h-7.2
				c-1,0-1.8-0.8-1.8-1.8v-5.9h10.8V-3014.3L-7677.8-3014.3z"/>
			<path class="st7" d="M-7683.2-3014.5c1,0,1.8-0.8,1.8-1.8s-0.8-1.8-1.8-1.8s-1.8,0.8-1.8,1.8S-7684.2-3014.5-7683.2-3014.5z
				 M-7683.2-3017.1c0.5,0,0.8,0.4,0.8,0.8s-0.4,0.8-0.8,0.8c-0.5,0-0.8-0.4-0.8-0.8S-7683.7-3017.1-7683.2-3017.1z"/>
		</g>
	</g>
</g>
<g>
	<g>
		<text transform="matrix(1 0 0 1 -7665.042 -2851.0115)" class="st11" style="font-family:'ArialMT'; font-size:13px;">Вход через</text>
	</g>
	<g>
		<g>
			<g id="XMLID_60_">
				<g>
					<path id="XMLID_61_" class="st11" d="M-7556.3-2852.3c0.8,0.8,1.7,1.6,2.5,2.5c0.3,0.4,0.6,0.8,0.9,1.3c0.3,0.7,0,1.4-0.6,1.4
						h-3.7c-0.9,0.1-1.7-0.3-2.3-1c-0.5-0.5-1-1.1-1.5-1.6c-0.2-0.2-0.4-0.4-0.7-0.6c-0.5-0.3-0.9-0.2-1.2,0.3
						c-0.3,0.5-0.4,1.1-0.4,1.7c0,0.9-0.3,1.1-1.2,1.1c-1.9,0.1-3.6-0.2-5.3-1.1c-1.4-0.8-2.6-2-3.5-3.3c-1.9-2.6-3.4-5.4-4.7-8.3
						c-0.3-0.7-0.1-1,0.6-1c1.2,0,2.4,0,3.6,0c0.5,0,0.8,0.3,1,0.7c0.6,1.6,1.4,3.1,2.4,4.5c0.3,0.4,0.5,0.7,0.9,1s0.8,0.2,1-0.3
						c0.1-0.3,0.2-0.6,0.2-0.9c0.1-1.1,0.1-2.2-0.1-3.3c-0.1-0.7-0.5-1.1-1.2-1.3c-0.4-0.1-0.3-0.2-0.1-0.4c0.3-0.3,0.6-0.6,1.1-0.6
						h4.2c0.7,0.1,0.8,0.4,0.9,1.1v4.6c0,0.3,0.1,1,0.6,1.2c0.4,0.1,0.6-0.2,0.8-0.4c1-1.1,1.7-2.3,2.3-3.6c0.3-0.6,0.5-1.2,0.8-1.7
						c0.2-0.4,0.4-0.7,0.9-0.6h4c0.1,0,0.2,0,0.4,0c0.7,0.1,0.9,0.4,0.7,1.1c-0.3,1-1,1.9-1.6,2.8c-0.7,0.9-1.4,1.8-2,2.7
						C-7557.1-2853.4-7557.1-2853-7556.3-2852.3L-7556.3-2852.3z"/>
				</g>
			</g>
			<g id="XMLID_58_">
				<g>
					<path id="XMLID_59_" class="st11" d="M-7535.9-2858.3h2.6v10.8c0,0.2,0.2,0.4,0.4,0.4h4.4c0.2,0,0.4-0.2,0.4-0.4v-10.8h3
						c0.2,0,0.4-0.1,0.4-0.3l0.5-4c0-0.1,0-0.2-0.1-0.3s-0.2-0.1-0.3-0.1h-3.5v-2.5c0-0.8,0.4-1.1,1.2-1.1c0.1,0,2.3,0,2.3,0
						c0.2,0,0.4-0.2,0.4-0.4v-3.7c0-0.2-0.2-0.4-0.4-0.4h-3.1h-0.1c-0.5,0-2.4,0.1-3.9,1.5c-1.7,1.5-1.4,3.3-1.4,3.7v2.9h-2.8
						c-0.2,0-0.4,0.2-0.4,0.4v3.9C-7536.3-2858.4-7536.1-2858.3-7535.9-2858.3z"/>
				</g>
			</g>
			<g id="XMLID_55_">
				<path id="XMLID_57_" class="st11" d="M-7483-2856.5h-1.5v-1.5c0-0.3-0.3-0.6-0.6-0.6h-2c-0.3,0-0.6,0.3-0.6,0.6v1.5h-1.5
					c-0.3,0-0.6,0.3-0.6,0.6v2c0,0.3,0.3,0.6,0.6,0.6h1.5v1.5c0,0.3,0.3,0.6,0.6,0.6h2c0.3,0,0.6-0.3,0.6-0.6v-1.5h1.5
					c0.3,0,0.6-0.3,0.6-0.6v-2C-7482.4-2856.2-7482.7-2856.5-7483-2856.5z"/>
				<path id="XMLID_56_" class="st11" d="M-7498.8-2859c0.7,0,1.4,0.2,1.9,0.5l0.7,0.4c0.2,0.2,0.5,0.1,0.7-0.1l1.9-1.9
					c0.1-0.1,0.2-0.3,0.2-0.5s-0.1-0.3-0.2-0.4l-1.1-0.8c0,0,0,0-0.1,0l-1.1-0.5l0,0c-0.9-0.4-1.9-0.5-2.9-0.5c-2,0-4,0.8-5.4,2.2
					c-1.5,1.5-2.3,3.4-2.3,5.6c0,2.1,0.8,4.1,2.2,5.6c1.5,1.5,3.5,2.3,5.7,2.3c2.1,0,4.1-0.8,5.5-2.3c1.1-1.1,1.7-2.7,1.9-4.4l0,0
					v-1.6v-0.1l-0.1-0.5c0-0.3-0.3-0.5-0.6-0.5h-6.6c-0.3,0-0.6,0.3-0.6,0.6v2.3c0,0.3,0.3,0.6,0.6,0.6h3.4c-0.2,0.3-0.4,0.7-0.7,1
					c-0.7,0.7-1.7,1.1-2.8,1.1c-1.1,0-2.2-0.4-2.9-1.2c-1.5-1.6-1.5-4.3,0-5.8C-7500.8-2858.6-7499.8-2859-7498.8-2859z"/>
			</g>
		</g>
	</g>
</g>
<rect x="-8252.8" y="-2720.6" class="st7" width="1359" height="668"/>
<rect x="-8252.8" y="-2720.1" class="st12" width="1359" height="80"/>
<g>
	<path class="st0" d="M-7571.7-2677.3c0,0.4,0,0.8,0,1.3c-0.7,0.4-2.2,1.1-3.9,0.9c-0.6-0.1-1.3-0.2-1.9-0.8
		c-0.3-0.4-0.5-0.8-0.6-1.4l7.5-1.9c-0.1-0.5-0.2-1.2-0.6-2c-0.8-1.8-2.2-3-2.3-2.9c0,0,0.1,0.2,0.1,0.4c-0.1,0.3-1.3,0.2-4.6-0.7
		c-1.8,0.5-3,1.4-3.7,2.6c-1.1,1.9,0.2,4.7-0.2,4.8c-0.2,0-0.4-0.5-0.4-0.4c-0.1,0,0.7,2.7,3,4.1c0.1,0.1,0.8,0.6,1.9,0.8
		c1.3,0.3,2.5,0.3,3.8,0c0.1,0,0.1,0,0.2,0s0.2,0,0.3-0.1c0.8-0.2,1.5-0.6,2.3-1c-0.1-0.9-0.2-1.8-0.3-2.7
		C-7571.3-2676.7-7571.5-2677-7571.7-2677.3z M-7578.1-2681.1c0.1-0.2,0.4-0.6,0.9-0.8c0.6-0.2,1.1,0,1.4,0.1c1,0.4,1.4,1.4,1.5,1.6
		l-4,1.1C-7578.4-2679.3-7578.6-2680.2-7578.1-2681.1z"/>
	<path class="st1" d="M-7571.7-2677.3c-1.2,0.8-2.4,1.2-3.5,1.3c-0.1,0-0.1,0-0.2,0s-0.1,0-0.2,0c-0.2,0-0.5,0-0.7,0
		c-1.5-0.1-2.3-0.8-2.5-2.2l7.5-1.9c-0.3-1.1-0.5-1.8-0.6-2c-1.3-2.7-3.5-3.8-6.8-3.2c-0.5,0.1-2.4,0.6-3.5,2.5
		c-1.2,2-0.6,4-0.3,4.9c0.2,0.6,0.8,2.5,2.6,3.7c0.6,0.4,1.2,0.6,1.9,0.8c1.5,0.3,2.9,0.2,4-0.1c0.1,0,0.1,0,0.2,0s0.1,0,0.2-0.1
		c1-0.3,1.8-0.7,2.2-1c-0.1-0.6-0.1-1.2-0.2-1.8C-7571.7-2676.7-7571.7-2677-7571.7-2677.3z M-7578.7-2682c0.1-0.2,0.3-0.6,0.8-0.8
		c0.6-0.3,1.2,0,1.4,0.1c1,0.4,1.4,1.4,1.5,1.6l-4,1.1C-7579-2680.2-7579.2-2681.1-7578.7-2682z"/>
	<path class="st0" d="M-7591.5-2679.8l0.6,9.5l-2.7,0.6c-0.2-0.3-0.5-0.6-0.7-0.9c0.2-0.1,0.3-0.2,0.5-0.3c-0.4-2.8-0.8-5.6-1.2-8.4
		c-0.8,0.1-1.5,0.2-2.3,0.3c-0.2-0.3-0.5-0.6-0.7-0.9c0.2-0.1,0.3-0.1,0.5-0.2c-0.1-0.3-0.1-0.6-0.2-1c0.8-0.1,1.6-0.1,2.4-0.2
		l-1.2-8.2c1.1-0.2,2.1-0.4,3.2-0.6c0.1-0.4,0.2-0.7,0.4-1.1c0.2,0.3,0.4,0.6,0.7,0.9c0.2,2.9,0.4,5.8,0.6,8.7
		c0.3,0,0.6-0.1,0.9-0.1c0-0.3,0-0.6,0-0.9c0.2,0.3,0.5,0.6,0.7,0.9c0,0.6,0.1,1.1,0.1,1.7L-7591.5-2679.8z"/>
	<path class="st1" d="M-7592.2-2680.7l0.6,9.5l-2.7,0.6l-1.4-9.6l-2.3,0.3l-0.3-2l2.4-0.2l-1.2-8.2l4.2-0.8l0.6,8.7l1.6-0.1l0.1,1.7
		L-7592.2-2680.7z"/>
	<path class="st0" d="M-7632.7-2697.6c5.9,0.3,10,1.4,12.4,3.2c1.9,1.4,2.6,3.3,2.2,5.6c-0.3,1.6-1.2,3.4-2.6,5.3
		c-0.7,1-1.4,1.8-2.1,2.4c1.9,1.9,2.7,3.5,2.5,5c-0.2,1.2-1.1,2.2-2.8,3c-1.8,1-4,1.6-6.6,1.9c-0.2-0.3-0.5-0.6-0.7-0.9
		c0.2-0.2,0.3-0.4,0.5-0.7C-7630.8-2681.1-7631.7-2689.3-7632.7-2697.6z M-7627.2-2683.8c0.8-0.2,1.5-0.6,2-1.2
		c0.5-0.7,0.7-1.4,0.6-2.3c-0.1-0.8-0.4-1.5-1.1-2.1c-0.6-0.6-1.3-0.8-2.2-0.8L-7627.2-2683.8z M-7626.4-2674.9
		c0.6-0.1,1.2-0.4,1.6-0.8c0.4-0.4,0.6-0.9,0.5-1.5c-0.1-0.5-0.3-1-0.8-1.4s-1.1-0.5-1.7-0.5L-7626.4-2674.9z"/>
	<path class="st0" d="M-7606.5-2676.3l-3.6,0.6c-0.2-0.3-0.5-0.6-0.7-0.9c0.2-0.1,0.4-0.1,0.6-0.2c-0.5,0.3-1.5,0.8-3,0.7
		c-1.6-0.2-3-0.8-4-2s-1.5-2.6-1.4-4.1c0.1-1.6,0.8-2.8,2.1-3.8c1.2-1,2.7-1.4,4.3-1.2c0.6,0.1,1.1,0.2,1.6,0.4l0.2-0.8
		c0.8,0,1.5,0,2.3,0c0.1-0.3,0.1-0.6,0.2-0.9c0.2,0.3,0.5,0.6,0.7,0.9C-7606.9-2683.9-7606.7-2680.1-7606.5-2676.3z M-7612.7-2678.2
		c0.5,0,1-0.2,1.4-0.8s0.7-1.3,0.8-2.2c0.1-0.9,0-1.6-0.3-2.3s-0.7-1-1.2-1.1c-0.5,0-1,0.2-1.4,0.8s-0.7,1.3-0.8,2.2
		c-0.1,0.9,0,1.6,0.3,2.3C-7613.6-2678.6-7613.2-2678.2-7612.7-2678.2z"/>
	<path class="st0" d="M-7599-2682.7l0.6,9.5l-2.7,0.6c-0.2-0.3-0.5-0.6-0.7-0.9c0.2-0.1,0.3-0.2,0.5-0.3c-0.4-2.8-0.8-5.6-1.2-8.4
		c-0.8,0.1-1.5,0.2-2.3,0.3c-0.2-0.3-0.5-0.6-0.7-0.9c0.2-0.1,0.3-0.1,0.5-0.2c-0.1-0.3-0.1-0.6-0.2-1c0.8-0.1,1.6-0.1,2.4-0.2
		l-1.2-8.2c1.1-0.2,2.1-0.4,3.2-0.6c0.1-0.4,0.2-0.7,0.4-1.1c0.2,0.3,0.4,0.6,0.7,0.9c0.2,2.9,0.4,5.8,0.6,8.7
		c0.3,0,0.6-0.1,0.9-0.1c0-0.3,0-0.6,0-0.9c0.2,0.3,0.5,0.6,0.7,0.9c0,0.6,0.1,1.1,0.1,1.7L-7599-2682.7z"/>
	<path class="st0" d="M-7584.9-2676.7l-2.5,0.2c-0.2-0.3-0.5-0.6-0.7-0.9c0.2-0.1,0.4-0.3,0.6-0.4c-0.5-6.6-1-13.3-1.5-19.9
		c1.1,0.1,2.1,0.1,3.2,0.2c0.2-0.3,0.4-0.5,0.6-0.8c0.2,0.3,0.5,0.6,0.7,0.9C-7584.6-2690.5-7584.8-2683.6-7584.9-2676.7z"/>
	<path class="st1" d="M-7633.4-2698.5c5.9,0.3,10,1.4,12.4,3.2c1.9,1.4,2.6,3.3,2.2,5.6c-0.3,1.6-1.2,3.4-2.6,5.3
		c-0.7,1-1.4,1.8-2.1,2.4c1.9,1.9,2.7,3.5,2.5,5c-0.2,1.2-1.1,2.2-2.8,3c-1.8,1-4,1.6-6.6,1.9L-7633.4-2698.5z M-7627.8-2684.7
		c0.8-0.2,1.5-0.6,2-1.2c0.5-0.7,0.7-1.4,0.6-2.3c-0.1-0.8-0.4-1.5-1.1-2.1c-0.6-0.6-1.3-0.8-2.2-0.8L-7627.8-2684.7z
		 M-7627.1-2675.8c0.6-0.1,1.2-0.4,1.6-0.8c0.4-0.4,0.6-0.9,0.5-1.5c-0.1-0.5-0.3-1-0.8-1.4s-1.1-0.5-1.7-0.5L-7627.1-2675.8z"/>
	<path class="st1" d="M-7607.1-2677.1l-3.6,0.6l-0.1-1.1c-1.3,0.5-2.2,0.8-3,0.7c-1.6-0.2-3-0.8-4-2s-1.5-2.6-1.4-4.1
		c0.1-1.6,0.8-2.8,2.1-3.8c1.2-1,2.7-1.4,4.3-1.2c0.6,0.1,1.1,0.2,1.6,0.4l0.2-0.8h3.1L-7607.1-2677.1z M-7613.4-2679
		c0.5,0,1-0.2,1.4-0.8s0.7-1.3,0.8-2.2c0.1-0.9,0-1.6-0.3-2.3s-0.7-1-1.2-1.1c-0.5,0-1,0.2-1.4,0.8s-0.7,1.3-0.8,2.2
		c-0.1,0.9,0,1.6,0.3,2.3C-7614.3-2679.4-7613.9-2679.1-7613.4-2679z"/>
	<path class="st1" d="M-7599.6-2683.6l0.6,9.5l-2.7,0.6l-1.4-9.6l-2.3,0.3l-0.3-2l2.4-0.2l-1.2-8.2l4.2-0.8l0.6,8.7l1.6-0.1l0.1,1.7
		L-7599.6-2683.6z"/>
	<path class="st1" d="M-7585.6-2677.6l-2.5,0.2l-1.6-21.2l4.5,0.3L-7585.6-2677.6z"/>
	<path class="st6" d="M-7506.6-2675.9c-0.3,0.1-0.5,0.1-0.8,0.2v-1.2c0.1,0,0.1-0.1,0.2-0.1
		C-7507-2676.6-7506.8-2676.3-7506.6-2675.9z"/>
	<path class="st6" d="M-7553.7-2697.7c0,0.2-0.2,2-0.8,5.3c-3.7,0.8-5.6,1.2-5.6,1.3c-0.1,0.1-0.2,1.4-0.4,4
		c1.5-0.5,2.9-1.1,4.4-1.6c0.1-0.5,0.1-1,0.2-1.5c0.2,0.4,0.5,0.8,0.7,1.2c0.1,1.7,0.3,3.5,0.4,5.2l0.1,0.5l-6.2,1.6l-0.3,5.6
		c2.3-0.7,4.5-1.3,6.8-2c0.1-0.5,0.2-1,0.3-1.5c0.2,0.4,0.5,0.8,0.7,1.2c-0.1,0.5-0.1,1-0.2,1.5c-0.1,0.9-0.3,2.1-0.6,3.8
		c-1.3,0.2-9.1,1.6-11,2c-0.2-0.4-0.5-0.8-0.7-1.2c0.2-0.1,0.5-0.1,0.7-0.2c0-3.5,0-6.9,0.1-10.4c0.2-0.5,0.5-1,0.7-1.5
		c-0.2-0.3-0.5-0.7-0.7-1c0-3.3,0-6.5,0.1-9.8c1-0.2,2-0.4,3-0.6c2.4-0.5,4.8-1,7.3-1.5c0.2-0.5,0.3-0.9,0.5-1.4
		C-7554.2-2698.5-7553.9-2698.1-7553.7-2697.7z"/>
	<path class="st6" d="M-7542.6-2683.7c1.2,0.7,1.6,2.7,1.3,5.9c-0.2,1.6-0.5,3.1-0.9,4.6l-4.2,0.6c-0.2-0.4-0.5-0.8-0.7-1.2
		c0.3-0.2,0.7-0.3,1-0.5c0.1-0.5,0.2-1.1,0.3-1.7c0.4-2.4,0.5-3.5,0.1-4.4c-0.4-0.6-0.8-0.8-1.4-0.3c-0.4,0.3-0.7,0.7-0.9,1.1
		c-0.1,0.2-0.1,0.3-0.1,0.3c0.1,3,0.1,5.4,0.2,7.3h-3.3c-0.1-0.2-0.2-0.3-0.3-0.5c-0.1-0.3-0.3-0.5-0.4-0.7c0-3.6-0.1-7.2-0.1-10.8
		c1,0,2,0,3,0c0-0.4,0-0.8,0-1.2c0.2,0.4,0.5,0.8,0.7,1.2c0.1,0.5,0.1,0.9,0.2,1.4c0.9-0.8,2-1.3,3.3-1.4c0.7-0.1,1.2-0.1,1.7,0
		C-7543-2683.9-7542.8-2683.8-7542.6-2683.7z"/>
	<path class="st6" d="M-7528.7-2674.5c0.3,2.5,0.4,4.2,0.1,5c-0.2,1.5-1.1,2.6-2.7,3.4c-0.8,0.4-1.6,0.6-2.4,0.7
		c-0.5,0.1-2.8,0.3-4.8-1.2c-1.2-0.9-1.8-2.1-2-2.7c1-0.4,1.9-0.8,2.9-1.2c0.2,0.5,0.7,1.5,1.7,2c0.2,0.1,0.5,0.3,0.9,0.3
		c1.6,0.1,2.6-0.6,2.9-1.9c0.2-0.7,0.2-1.3,0-2l-0.4-2.2l0,0l-0.1-0.8c-1,0.3-1.7,0.5-2.2,0.5c-1.4,0-2.7-0.5-3.7-1.5
		s-1.5-2.2-1.5-3.5s0.5-2.6,1.5-3.5c1-1,2.3-1.5,3.7-1.5c0.2,0,0.4,0,0.6,0l-0.1-0.8c1-0.2,2-0.4,3-0.6c0-0.5,0.1-0.9,0.1-1.4
		c0.2,0.4,0.5,0.8,0.7,1.2c0.5,3.2,1.6,9.5,1.6,9.5c0.1,0.4,0.1,0.9,0.2,1.3C-7528.8-2674.9-7528.8-2674.7-7528.7-2674.5z
		 M-7533.4-2679.3c0-0.1,0-0.2,0-0.3l-0.1-0.7c-0.1-0.4-0.3-0.8-0.5-1c-0.3-0.3-0.5-0.4-0.8-0.4c-0.4,0-0.8,0.2-1.1,0.7
		c-0.3,0.5-0.4,1.1-0.4,1.8s0.1,1.3,0.4,1.8s0.7,0.7,1.1,0.7s0.8-0.2,1.1-0.7C-7533.5-2678-7533.4-2678.6-7533.4-2679.3z"/>
	<path class="st6" d="M-7523.5-2670l-2.5,0.3c-0.2-0.4-0.5-0.8-0.7-1.2c0.2-0.1,0.3-0.2,0.5-0.4c-1-6.5-1.9-13-2.9-19.4
		c1.1,0,2.2,0,3.4,0c0.1-0.4,0.3-0.8,0.4-1.2c0.2,0.4,0.5,0.8,0.7,1.2C-7524.2-2683.8-7523.9-2676.9-7523.5-2670z"/>
	<path class="st6" d="M-7519.2-2684.3c-0.4,0.4-0.9,0.6-1.4,0.6s-1-0.2-1.4-0.6c-0.4-0.4-0.6-1-0.6-1.6s0.2-1.1,0.6-1.6
		c0.4-0.4,0.9-0.6,1.4-0.6s1,0.2,1.4,0.6c0.4,0.4,0.6,0.9,0.6,1.6S-7518.8-2684.7-7519.2-2684.3z M-7522.2-2681.2
		c0.3,2.8,0.6,5.6,0.9,8.4c-0.2,0.1-0.3,0.3-0.5,0.4c0.2,0.4,0.5,0.8,0.7,1.2c1.1-0.3,2.2-0.6,3.3-0.9v-10.1
		c-0.2-0.4-0.5-0.8-0.7-1.2c-0.2,0.5-0.4,1-0.6,1.5C-7520.1-2681.7-7521.2-2681.5-7522.2-2681.2z"/>
	<path class="st6" d="M-7506.3-2675.3c0.2,0.8,0.3,1.5,0.1,2.1c-0.2,0.6-0.6,1.1-1.2,1.5c-1.1,0.7-2.6,0.9-4.6,0.7
		c-1.9-0.2-3.2-0.8-3.9-1.7c-0.3-0.5-0.6-1-0.9-1.4c0.6-0.6,1.2-1.3,1.7-1.9l0.6,0.9c0.3,0.5,0.9,0.9,1.8,1.2s1.7,0.3,2.3,0
		c0.2-0.1,0.4-0.2,0.6-0.3c0.1-0.1,0.1-0.1,0.1-0.1c0-0.4-1.1-1.1-3.2-2.1l-0.5-0.2c-0.9-0.4-1.6-1-2-1.7s-0.7-1.4-0.6-2.1
		c0-0.1,0-0.2,0-0.3c0.2-1.2,1.1-2.1,2.6-2.5c1.2-0.4,2.3-0.3,3.3-0.3c1.1,0.1,2,0.3,2.7,0.5c0.2-0.2,0.3-0.3,0.5-0.5
		c0.2,0.4,0.5,0.8,0.7,1.2l-1.6,2.6l-0.2,0.4l-0.6-0.2l-1-0.4c-0.8-0.2-1.3-0.3-1.5,0c-0.1,0.1-0.1,0.2-0.1,0.5
		c0.1,0.2,0.7,0.6,1.8,1.3c0.9,0.6,1.6,1,2,1.3C-7506.9-2676.3-7506.5-2675.8-7506.3-2675.3z"/>
	<path class="st6" d="M-7495.5-2682.8c1.2,0.6,2,2.1,2.4,4.4c0.2,1.2,0.3,2.3,0.2,3.3l-0.1,2.4l-4,0.9c-0.2-0.4-0.5-0.8-0.7-1.2
		c0.3-0.1,0.6-0.2,0.9-0.3c0.1-0.7,0.1-1.3,0.2-1.8c0.2-2.2,0.3-3.4-0.3-4.2c-0.4-0.6-0.8-0.7-1.4-0.2c-0.4,0.3-0.7,0.7-0.8,1.1
		c-0.1,0.2-0.1,0.3-0.1,0.3c-0.7,2.9-0.9,5.2-0.7,7l-3.2,0.3c-0.2-0.4-0.5-0.8-0.7-1.2c0.2-0.1,0.3-0.1,0.5-0.2
		c-1-6.6-2-13.2-3-19.8c1.3,0,2.5,0.1,3.8,0.1c0.2-0.4,0.5-0.8,0.7-1.2c0.2,0.4,0.5,0.8,0.7,1.2c0.1,3.5,0.1,7,0.2,10.5
		c0.8-0.9,1.8-1.4,3.1-1.6c0.6-0.1,1.2-0.1,1.6-0.1c0.3,0.1,0.4,0.1,0.4,0.1S-7495.7-2682.9-7495.5-2682.8z"/>
	<path class="st6" d="M-7637.6-2670.7"/>
	<path class="st6" d="M-7518.9-2686.9c-1.1,0.8-2.3,1.5-3.4,2.3c-0.2-0.4-0.5-0.9-0.7-1.3c1.2-0.7,2.3-1.4,3.5-2.1
		C-7519.3-2687.7-7519.1-2687.3-7518.9-2686.9z"/>
	<path class="st7" d="M-7554.4-2698.9c0,0.2-0.2,2-0.8,5.3c-3.7,0.8-5.6,1.2-5.6,1.3c-0.1,0.1-0.2,1.4-0.4,4l5.2-1.9l0.4,5.2
		l0.1,0.5l-6.2,1.6l-0.3,5.6l7.8-2.3c0,0.2-0.2,2-0.8,5.3c-1.3,0.2-9,1.6-11,2c0-3.7,0.1-20.1,0.1-24.2c1-0.2,2-0.4,3-0.6
		C-7562.2-2697.3-7556.3-2698.5-7554.4-2698.9z"/>
	<path class="st7" d="M-7543.3-2684.9c1.2,0.7,1.6,2.7,1.3,5.9c-0.2,1.6-0.5,3.1-0.9,4.6l-4.2,0.6c0,0,0.1-0.4,0.2-1.1
		c0.2-0.8,0.3-1.6,0.5-2.3c0.4-2.3,0.4-3.7,0.1-4.4c-0.4-0.6-0.8-0.8-1.4-0.3c-0.4,0.3-0.7,0.7-0.9,1.1c-0.1,0.2-0.1,0.3-0.1,0.3
		c0.1,3,0.1,5.4,0.2,7.3h-3.3l-0.8-12l3.7-0.1l0.2,1.4c0.9-0.8,2-1.3,3.3-1.4c0.7-0.1,1.2-0.1,1.7,0
		C-7543.7-2685.1-7543.5-2685-7543.3-2684.9z"/>
	<path class="st7" d="M-7529.4-2675.7c0.3,2.5,0.4,4.2,0.1,5c-0.2,1.5-1.1,2.6-2.7,3.4c-0.8,0.4-1.6,0.6-2.4,0.7
		c-1.9,0.2-3.5-0.2-4.8-1.2c-0.6-0.5-1.1-1-1.3-1.5l2.4-2.6c0.4,1.1,0.9,1.8,1.6,2.3c0.3,0.2,0.6,0.3,0.9,0.3
		c1.6,0.1,2.6-0.6,2.9-1.9c0.2-0.7,0.2-1.3,0-2l-0.4-2.2l-0.1-0.7c-1,0.3-1.7,0.5-2.2,0.5c-1.4,0-2.7-0.5-3.7-1.5s-1.5-2.2-1.5-3.5
		c0-1.4,0.5-2.6,1.5-3.5c1-1,2.3-1.5,3.7-1.5c0.2,0,0.4,0,0.6,0l-0.1-0.8l3.8-0.8l1.5,9.5c0,0,0.2,0.8,0.2,1.3V-2675.7z
		 M-7534.1-2680.5c0-0.1,0-0.2,0-0.3l-0.1-0.7c-0.1-0.4-0.3-0.8-0.5-1c-0.3-0.3-0.5-0.4-0.8-0.4c-0.4,0-0.8,0.2-1.1,0.7
		c-0.3,0.5-0.4,1.1-0.4,1.8s0.1,1.3,0.4,1.8s0.7,0.7,1.1,0.7s0.8-0.2,1.1-0.7C-7534.2-2679.3-7534.1-2679.8-7534.1-2680.5z"/>
	<path class="st7" d="M-7524.2-2671.3l-2.5,0.3l-3.1-21h4.5L-7524.2-2671.3z"/>
	<path class="st7" d="M-7519.9-2685.5c-0.4,0.4-0.9,0.6-1.4,0.6s-1-0.2-1.4-0.6c-0.4-0.4-0.6-1-0.6-1.6s0.2-1.1,0.6-1.6
		s0.9-0.6,1.4-0.6s1,0.2,1.4,0.6c0.4,0.4,0.6,0.9,0.6,1.6S-7519.5-2685.9-7519.9-2685.5z M-7522.9-2682.4l1.1,10l3.3-0.9v-10.1
		L-7522.9-2682.4z"/>
	<path class="st7" d="M-7507-2676.5c0.2,0.8,0.3,1.5,0.1,2.1c-0.2,0.6-0.6,1.1-1.2,1.5c-1.1,0.7-2.6,0.9-4.6,0.7
		c-1.9-0.2-3.2-0.8-3.9-1.7l-0.2-0.2l1.1-3.1l0.6,0.9c0.3,0.5,0.9,0.9,1.8,1.2s1.7,0.3,2.3,0c0.2-0.1,0.4-0.2,0.6-0.3
		c0.1-0.1,0.1-0.1,0.1-0.1c0-0.4-1.1-1.1-3.2-2.1l-0.5-0.2c-0.9-0.4-1.6-1-2-1.7c-0.5-0.7-0.7-1.4-0.6-2.1c0-0.1,0-0.2,0-0.3
		c0.2-1.2,1.1-2.1,2.6-2.5c0.8-0.3,1.9-0.3,3.3-0.3c1.6,0.1,2.7,0.4,3.4,0.9l0.4,0.3l-1.6,2.6l-0.2,0.4l-0.6-0.2l-1-0.4
		c-0.8-0.2-1.3-0.3-1.5,0c-0.1,0.1-0.1,0.2-0.1,0.5c0.1,0.2,0.7,0.6,1.8,1.3c0.9,0.6,1.6,1,2,1.3
		C-7507.6-2677.5-7507.2-2677-7507-2676.5z"/>
	<path class="st7" d="M-7496.2-2684c1.2,0.6,2,2.1,2.4,4.4c0.2,1.2,0.3,2.3,0.2,3.3l-0.1,2.4l-4,0.9c0,0,0.1-0.4,0.2-1
		c0.1-0.8,0.2-1.6,0.3-2.3c0.2-2.2,0.1-3.6-0.3-4.2c-0.4-0.6-0.8-0.7-1.4-0.2c-0.4,0.3-0.7,0.7-0.8,1.1c-0.1,0.2-0.1,0.3-0.1,0.3
		c-0.7,2.9-0.9,5.2-0.7,7l-3.2,0.3v-0.2l-3.2-21l5.2,0.1l0.2,10.5c0.8-0.9,1.8-1.4,3.1-1.6c0.6-0.1,1.2-0.1,1.6-0.1
		c0.3,0.1,0.4,0.1,0.4,0.1S-7496.4-2684.1-7496.2-2684z"/>
</g>
<g>
	<g>
		<defs>
			<circle id="SVGID_1_" cx="-7131.8" cy="-2680.4" r="23"/>
		</defs>
		<clipPath id="SVGID_2_">
			<use xlink:href="#SVGID_1_"  style="overflow:visible;"/>
		</clipPath>
		<g class="st13">
			
				<image style="overflow:visible;enable-background:new    ;" width="1080" height="1100" xlink:href="BD4F8929.jpeg"  transform="matrix(5.000000e-02 0 0 4.909091e-02 -7154.8477 -2707.4358)">
			</image>
		</g>
	</g>
</g>
<text transform="matrix(1 0 0 1 -7094.8477 -2674.74)" class="st14" style="font-family:'ArialMT'; font-size:16px;">Александр</text>
<g>
	<g>
		<path class="st7" d="M-6994.1-2680.4c-0.1-0.1-0.2-0.2-0.4-0.2h-7.8c-0.2,0-0.3,0.1-0.4,0.2c-0.1,0.1-0.2,0.2-0.2,0.4
			s0.1,0.3,0.2,0.4l3.9,3.9c0.1,0.1,0.2,0.2,0.4,0.2s0.3-0.1,0.4-0.2l3.9-3.9c0.1-0.1,0.2-0.2,0.2-0.4S-6994-2680.3-6994.1-2680.4z"
			/>
	</g>
</g>
<g>
	<g id="notifications">
		<path class="st14" d="M-7186.8-2670.2c1,0,1.9-0.8,1.9-1.9h-3.8C-7188.7-2671-7187.9-2670.2-7186.8-2670.2z M-7180.7-2675.8v-5.2
			c0-2.9-2-5.3-4.7-5.9v-0.7c0-0.8-0.7-1.4-1.4-1.4s-1.4,0.7-1.4,1.4v0.7c-2.7,0.7-4.7,3-4.7,5.9v5.2l-1.9,1.9v0.9h16v-0.9
			L-7180.7-2675.8z"/>
	</g>
</g>
<circle class="st15" cx="-7181.3" cy="-2687.1" r="4"/>
<text transform="matrix(1 0 0 1 -7182.2012 -2685.957)" class="st12" style="font-family:'ArialMT'; font-size:4px;">1</text>
<g>
	<g>
		<g>
			<path class="st7" d="M-8135.8-2686.6h-2.8v-0.9h-11.4v0.9h-2.8c-0.6,0-1,0.4-1,0.9v2.3c0,2.2,1.6,4,3.8,4.3v0.1
				c0,2.8,1.9,5,4.5,5.6l-0.7,2h-2.2c-0.4,0-0.8,0.3-0.9,0.7l-0.8,2.2h11.4l-0.8-2.2c-0.1-0.4-0.5-0.7-0.9-0.7h-2.2l-0.7-2
				c2.6-0.6,4.5-2.9,4.5-5.6v-0.1c2.2-0.3,3.8-2.1,3.8-4.3v-2.3C-8134.8-2686.3-8135.2-2686.6-8135.8-2686.6z M-8150-2681
				c-1-0.3-1.9-1.2-1.9-2.4v-1.3h1.9V-2681z M-8142.4-2678.1l-1.9-1l-1.9,1l0.5-1.9l-1.4-1.9h2l0.9-1.9l0.9,1.9h2l-1.4,1.9
				L-8142.4-2678.1z M-8136.7-2683.4c0,1.1-0.9,2.2-1.9,2.4v-3.7h1.9V-2683.4z"/>
		</g>
	</g>
</g>
<text transform="matrix(1 0 0 1 -8118.8477 -2673.74)" class="st14" style="font-family:'ArialMT'; font-size:16px;">Александр</text>
</svg>
